<?xml version="1.0" standalone="no"?>
<!DOCTYPE svg PUBLIC "-//W3C//DTD SVG 20010904//EN"
 "http://www.w3.org/TR/2001/REC-SVG-20010904/DTD/svg10.dtd">
<svg version="1.0" xmlns="http://www.w3.org/2000/svg"
 width="1056.000000pt" height="1056.000000pt" viewBox="0 0 1056.000000 1056.000000"
 preserveAspectRatio="xMidYMid meet">
<metadata>
Created by potrace 1.14, written by Peter Selinger 2001-2017
</metadata>
<g transform="translate(0.000000,1056.000000) scale(0.100000,-0.100000)"
fill="#000000" stroke="none">
<path d="M4874 10423 c4 -8 2 -13 -4 -13 -7 0 -10 -7 -7 -15 4 -8 1 -17 -5
-21 -7 -4 -8 -3 -4 4 4 7 2 12 -3 12 -6 0 -10 3 -8 8 1 4 -2 7 -8 7 -5 0 -9
-3 -7 -7 4 -14 -16 -9 -21 5 -2 6 -8 9 -12 5 -4 -4 -3 -14 3 -21 9 -10 8 -14
-3 -14 -8 0 -12 4 -9 9 3 4 -11 8 -30 8 -19 0 -38 -4 -41 -10 -3 -5 -11 -10
-17 -10 -6 0 -6 6 2 15 7 9 10 18 6 22 -3 3 -6 1 -6 -5 0 -7 -9 -12 -20 -12
-11 0 -20 -5 -20 -11 0 -5 5 -7 12 -3 7 4 8 3 4 -5 -6 -9 -11 -9 -22 0 -7 6
-11 16 -7 22 3 6 1 7 -6 3 -6 -4 -9 -12 -6 -17 3 -5 -2 -6 -11 -2 -13 5 -15 3
-9 -8 5 -8 -1 -5 -13 5 -12 11 -25 16 -29 13 -3 -4 -1 -7 5 -7 7 0 12 -5 12
-10 0 -7 -6 -8 -16 -2 -18 10 -57 4 -50 -7 3 -4 0 -13 -6 -21 -8 -12 -9 -12
-4 3 3 9 0 17 -6 17 -6 0 -5 6 3 18 13 16 13 16 -7 -1 -11 -9 -24 -14 -27 -10
-4 3 -7 1 -7 -6 0 -7 -4 -10 -9 -6 -5 3 -12 1 -16 -4 -3 -5 -14 -8 -25 -6 -13
3 -17 -1 -13 -11 4 -11 0 -13 -18 -6 -29 11 -52 5 -42 -11 4 -7 -1 -6 -10 2
-9 7 -17 10 -17 6 0 -4 -7 -2 -16 5 -12 11 -15 11 -12 0 2 -8 -3 -14 -9 -15
-15 0 -18 -13 -7 -23 4 -4 4 0 -1 8 -5 8 -5 12 0 8 4 -4 14 -3 22 3 10 9 13 8
13 -5 0 -10 -4 -15 -9 -11 -5 3 -12 1 -16 -4 -3 -6 -12 -8 -20 -4 -9 3 -15 -1
-15 -8 0 -8 -6 -5 -15 7 -14 19 -14 19 -15 -1 -1 -11 -4 -14 -7 -7 -8 19 -26
14 -18 -5 5 -14 4 -15 -6 -6 -10 10 -17 9 -33 -5 -11 -9 -17 -12 -13 -7 3 6
-3 17 -15 24 -11 7 -17 8 -14 2 4 -5 2 -12 -4 -16 -6 -4 -8 -10 -5 -15 3 -5 1
-11 -5 -15 -5 -3 -10 0 -10 8 0 7 -6 14 -14 14 -8 0 -12 -6 -8 -15 4 -11 1
-14 -11 -9 -10 4 -17 1 -18 -6 0 -7 -4 -3 -9 8 -7 17 -9 17 -9 3 -1 -10 -8
-18 -17 -18 -8 0 -12 -4 -9 -10 4 -6 -1 -7 -11 -3 -13 5 -15 3 -9 -7 5 -9 4
-11 -4 -6 -6 4 -9 12 -6 17 11 16 -7 10 -22 -8 -8 -10 -12 -13 -9 -6 4 7 -1 9
-14 6 -11 -3 -20 -10 -20 -17 0 -6 -6 -4 -13 5 -10 14 -14 14 -25 3 -7 -8 -8
-14 -2 -14 5 0 10 -7 10 -15 0 -8 -5 -15 -11 -15 -5 0 -7 5 -4 10 3 6 2 10 -3
10 -6 0 -13 -8 -17 -17 -6 -17 -7 -17 -21 1 -8 11 -14 14 -14 8 0 -7 -5 -12
-11 -12 -5 0 -7 5 -3 12 4 7 3 8 -5 4 -8 -5 -9 -12 -2 -20 7 -8 6 -17 -1 -26
-8 -12 -9 -11 -4 3 4 12 2 17 -6 14 -7 -2 -12 -10 -10 -16 2 -9 -3 -9 -20 0
-21 11 -22 11 -10 -4 11 -13 10 -15 -7 -10 -12 3 -18 10 -14 16 3 6 1 7 -6 3
-7 -4 -9 -17 -6 -29 5 -17 4 -18 -4 -8 -5 8 -16 16 -25 17 -13 2 -14 -2 -5
-18 8 -15 8 -19 0 -14 -6 4 -11 2 -11 -3 0 -6 -5 -11 -11 -11 -8 0 -8 4 0 14
9 11 9 16 0 22 -7 4 -10 3 -7 -2 3 -5 0 -15 -8 -21 -10 -10 -15 -10 -24 5 -11
16 -11 16 -6 0 3 -10 1 -18 -5 -18 -6 0 -8 -4 -5 -9 3 -4 -6 -7 -20 -5 -19 2
-23 -1 -15 -10 8 -9 3 -12 -20 -10 -24 2 -29 -1 -24 -13 5 -14 3 -14 -12 -2
-15 12 -16 12 -10 -5 7 -17 6 -17 -10 -5 -11 9 -14 10 -9 2 5 -9 -2 -13 -23
-13 -22 0 -29 -4 -25 -14 3 -8 0 -17 -7 -22 -7 -4 -10 -3 -6 2 3 6 -4 16 -16
23 -18 11 -20 11 -9 0 17 -18 15 -32 -4 -25 -9 4 -13 2 -8 -5 4 -8 -1 -9 -16
-4 -15 5 -20 4 -16 -4 6 -10 -6 -15 -26 -12 -17 2 -7 -10 15 -20 20 -9 20 -9
1 -6 -12 3 -29 0 -39 -5 -12 -8 -20 -6 -26 3 -6 10 -9 8 -9 -9 0 -15 -5 -22
-12 -19 -7 2 -12 10 -10 16 1 7 -2 10 -8 6 -8 -5 -8 -11 0 -20 8 -9 8 -15 0
-20 -5 -3 -10 0 -10 7 0 9 -3 9 -10 -2 -8 -13 -13 -13 -32 -2 -23 13 -23 13 1
-8 l23 -20 -28 -1 c-16 -1 -33 -1 -37 0 -5 1 -6 -3 -2 -9 3 -5 0 -19 -8 -31
-10 -13 -16 -16 -19 -8 -3 8 -11 10 -22 6 -10 -4 -16 -13 -13 -22 4 -9 1 -12
-9 -8 -9 3 -14 0 -12 -7 2 -7 -7 -14 -20 -16 -15 -3 -21 0 -17 7 4 6 14 8 22
4 13 -4 14 -3 3 10 -11 14 -14 13 -25 -2 -7 -10 -11 -22 -7 -27 3 -5 -2 -7
-11 -3 -13 5 -17 1 -17 -14 0 -21 0 -21 -17 -2 -10 10 -14 13 -9 6 5 -8 4 -18
-3 -26 -6 -8 -8 -16 -5 -19 3 -3 -3 -5 -13 -4 -12 1 -17 -5 -16 -19 1 -11 0
-14 -3 -7 -3 6 -11 9 -17 5 -7 -3 -4 3 6 14 20 23 22 33 5 33 -6 0 -8 -3 -5
-6 3 -4 -2 -18 -13 -32 -11 -13 -17 -28 -14 -33 3 -5 -3 -6 -12 -2 -12 4 -15
3 -10 -5 5 -8 1 -10 -10 -5 -13 5 -15 3 -9 -8 8 -12 6 -12 -8 0 -10 8 -21 11
-25 7 -7 -8 -8 -13 -11 -41 0 -8 -7 -14 -13 -13 -8 2 -12 -5 -10 -17 2 -15 1
-17 -7 -6 -5 8 -7 21 -4 30 3 9 -7 -1 -23 -22 -15 -21 -33 -36 -39 -33 -7 2
-12 -2 -12 -10 0 -7 4 -11 8 -8 4 2 10 0 13 -5 7 -11 -13 -9 -34 3 -8 5 -12 6
-8 1 4 -4 0 -14 -10 -21 -15 -11 -15 -15 -3 -36 14 -22 13 -22 -5 -8 -10 8
-22 19 -25 23 -3 5 -9 1 -12 -8 -5 -11 -3 -14 6 -10 6 4 4 0 -6 -9 -11 -8 -25
-12 -33 -9 -8 3 -14 0 -14 -5 0 -6 -9 -14 -21 -17 -11 -4 -18 -9 -15 -12 3 -3
16 1 29 10 17 11 28 12 38 5 11 -8 11 -9 -3 -5 -9 3 -22 -1 -28 -9 -7 -8 -19
-14 -26 -14 -8 0 -14 -5 -14 -11 0 -5 6 -7 13 -3 7 4 9 3 4 -2 -5 -5 -14 -9
-20 -9 -7 0 -11 -8 -11 -16 1 -11 -5 -15 -17 -12 -11 3 -19 0 -19 -6 0 -7 5
-9 12 -5 7 5 8 3 3 -6 -6 -10 -11 -9 -21 4 -8 11 -14 13 -19 7 -3 -6 -2 -11 3
-11 6 0 12 -6 15 -13 3 -7 -3 -13 -13 -13 -10 0 -16 5 -13 10 4 5 1 6 -6 2 -7
-5 -10 -14 -7 -22 3 -8 -1 -17 -9 -20 -8 -4 -12 -11 -8 -17 3 -6 1 -7 -5 -3
-6 4 -9 13 -5 21 3 8 -1 15 -8 15 -7 0 -9 -3 -6 -6 3 -4 0 -16 -8 -26 -7 -11
-11 -28 -8 -37 3 -12 2 -12 -7 2 -16 24 -38 6 -35 -28 2 -13 0 -24 -3 -24 -26
4 -34 -2 -23 -15 10 -12 9 -13 -8 -9 -13 3 -23 -2 -30 -16 -7 -12 -8 -21 -4
-21 4 -1 -2 -9 -14 -19 -12 -10 -20 -21 -17 -24 3 -3 -3 -4 -13 -3 -12 0 -17
-5 -17 -17 2 -15 -1 -16 -14 -5 -14 12 -14 10 -3 -11 7 -13 9 -21 4 -18 -13 8
-55 -12 -48 -23 3 -5 1 -10 -4 -10 -6 0 -11 -7 -11 -15 0 -8 -6 -12 -14 -9
-18 7 -30 -12 -15 -22 8 -4 9 -3 5 4 -5 8 -1 10 9 6 14 -6 13 -8 -5 -21 -11
-8 -17 -19 -14 -25 4 -6 3 -9 -2 -6 -5 3 -19 2 -32 -3 -20 -8 -21 -11 -11 -31
11 -21 11 -22 -4 -9 -14 11 -17 11 -18 0 -1 -8 -1 -18 0 -22 1 -5 -4 -5 -10
-1 -9 5 -10 2 -6 -10 5 -14 3 -17 -8 -12 -8 3 -15 1 -15 -4 0 -19 -49 -62 -62
-54 -10 5 -11 4 0 -7 13 -15 17 -33 4 -25 -5 3 -16 -4 -25 -14 -9 -11 -12 -22
-7 -25 6 -4 10 -1 10 5 0 6 5 8 11 4 8 -5 6 -10 -5 -16 -9 -5 -21 -6 -26 -3
-6 4 -10 3 -9 -2 4 -21 -2 -34 -13 -28 -7 4 -4 -1 6 -9 15 -12 16 -16 5 -16
-8 0 -21 6 -28 13 -8 6 -5 -1 5 -18 18 -30 18 -30 -1 -15 -15 12 -17 12 -10 1
6 -11 4 -13 -11 -8 -18 7 -18 6 -1 -7 22 -17 22 -27 0 -19 -16 6 -17 5 -3 -12
14 -17 14 -18 -10 -5 -22 12 -24 12 -12 -2 10 -13 10 -18 1 -24 -8 -4 -9 -3
-5 4 4 7 3 12 -2 12 -5 0 -12 -9 -15 -20 -3 -11 -1 -18 4 -14 5 3 9 1 9 -5 0
-5 -5 -13 -10 -16 -6 -4 -7 -12 -4 -18 4 -7 3 -8 -2 -4 -9 8 -10 12 -13 39 -2
16 -11 4 -16 -21 -2 -12 0 -19 6 -16 13 9 11 -9 -3 -23 -9 -9 -9 -12 2 -12 9
0 6 -6 -8 -16 -14 -10 -21 -22 -17 -31 4 -12 2 -13 -8 -5 -11 10 -13 6 -12
-16 1 -25 -2 -28 -22 -24 -13 2 -23 -1 -23 -7 0 -7 4 -10 9 -6 5 3 13 0 17 -6
4 -8 3 -9 -4 -5 -7 4 -12 2 -12 -4 0 -6 -6 -8 -12 -5 -7 4 -4 -1 7 -10 20 -16
19 -16 -7 -11 -20 3 -25 1 -21 -10 3 -8 10 -14 16 -14 6 0 7 -3 4 -6 -4 -4
-14 -1 -22 6 -14 11 -14 10 -6 -12 12 -31 -8 -65 -31 -55 -12 4 -14 0 -10 -15
4 -16 2 -19 -8 -13 -9 5 -11 4 -6 -4 4 -6 11 -9 15 -7 4 3 8 -1 8 -8 0 -8 -7
-12 -15 -9 -11 5 -13 1 -7 -15 7 -23 -9 -31 -19 -9 -2 6 -4 1 -3 -13 1 -13 -3
-25 -10 -25 -6 0 -15 -4 -20 -8 -4 -5 -2 -7 6 -5 9 2 14 -7 15 -24 1 -21 -1
-24 -11 -16 -10 8 -13 5 -14 -13 -1 -13 -1 -27 0 -31 0 -4 -5 -5 -13 -2 -17 6
-29 -23 -14 -32 6 -4 8 -3 5 3 -3 5 0 10 8 10 13 0 12 -4 -2 -19 -19 -21 -27
-24 -18 -5 4 6 -2 2 -13 -10 -11 -12 -23 -19 -28 -15 -5 4 -1 -3 9 -14 17 -20
17 -22 1 -28 -15 -6 -15 -8 2 -28 19 -21 19 -21 -3 -9 -30 15 -41 14 -18 -2
10 -8 15 -19 11 -26 -4 -6 -2 -19 6 -28 12 -15 11 -15 -9 -2 -15 9 -19 17 -13
23 13 13 13 26 -1 26 -5 0 -8 -4 -4 -9 3 -6 -3 -14 -12 -20 -10 -6 -13 -11 -7
-11 7 0 14 -11 16 -24 4 -17 1 -23 -9 -19 -7 3 -13 0 -13 -6 0 -6 4 -11 8 -11
5 0 9 -7 9 -15 0 -13 -4 -12 -21 2 -14 12 -17 13 -9 3 15 -20 13 -59 -3 -53
-16 6 -27 -14 -13 -23 8 -5 9 -3 4 6 -6 9 -4 11 5 5 10 -6 10 -11 -3 -20 -17
-12 -24 -31 -9 -21 5 3 9 -1 9 -9 0 -8 -5 -11 -10 -8 -6 4 -8 0 -4 -10 3 -9 2
-19 -4 -22 -5 -4 -7 -11 -4 -16 4 -5 -2 -6 -12 -2 -16 6 -16 4 2 -17 11 -13
15 -20 8 -17 -6 4 -14 3 -18 -3 -4 -6 -12 -7 -18 -4 -7 4 -9 4 -5 -1 4 -4 2
-15 -5 -24 -11 -14 -10 -14 6 -2 9 8 20 11 24 7 3 -3 1 -6 -6 -6 -8 0 -11 -6
-7 -16 3 -9 -4 -25 -19 -40 -26 -25 -26 -26 -3 -20 13 3 17 3 10 0 -6 -3 -10
-10 -7 -15 4 -5 -1 -6 -9 -3 -9 3 -16 1 -16 -5 0 -6 4 -11 8 -11 4 0 8 -10 9
-21 2 -19 1 -20 -10 -5 -10 13 -12 1 -12 -63 0 -62 -3 -77 -13 -73 -11 4 -11
6 0 13 10 7 9 9 -5 9 -13 0 -16 -6 -13 -23 2 -13 0 -30 -4 -37 -10 -16 -2 -42
11 -35 4 3 6 -5 3 -17 -3 -13 -6 -29 -6 -35 -1 -7 -8 -13 -17 -14 -10 0 -12
-2 -3 -6 6 -2 12 -16 12 -30 0 -19 -4 -24 -16 -19 -10 4 -13 2 -8 -6 5 -8 2
-9 -10 -5 -11 4 -15 3 -11 -4 4 -6 13 -8 19 -6 8 3 12 -3 10 -16 -1 -12 -3
-26 -3 -30 -1 -5 -5 -6 -10 -2 -16 9 -22 -13 -7 -27 12 -13 11 -16 -5 -26 -11
-7 -16 -18 -12 -28 4 -11 8 -12 13 -4 5 8 9 7 13 -5 4 -9 3 -14 -1 -11 -5 3
-13 -8 -19 -25 -6 -16 -7 -29 -2 -29 5 0 9 5 9 11 0 5 5 7 11 3 8 -4 7 -9 -2
-15 -8 -5 -10 -9 -5 -9 6 0 5 -5 -2 -12 -8 -8 -8 -17 -1 -31 8 -13 8 -17 1
-13 -6 3 -13 2 -17 -4 -3 -5 -2 -10 3 -10 15 0 23 -28 10 -36 -6 -4 -8 -3 -4
4 3 6 2 14 -4 17 -6 4 -10 3 -9 -2 4 -20 -2 -27 -12 -13 -9 13 -10 13 -6 0 2
-8 10 -14 16 -13 6 2 11 -1 11 -7 0 -5 8 -7 18 -4 13 5 14 4 3 -4 -8 -6 -21
-8 -30 -5 -14 4 -14 3 -1 -9 8 -7 16 -20 18 -28 3 -10 -3 -9 -20 5 -19 17 -20
17 -8 2 12 -16 12 -20 -1 -28 -10 -6 -11 -9 -1 -9 8 0 10 -5 5 -12 -12 -20
-12 -38 -1 -38 6 0 7 7 4 16 -3 8 -2 12 4 9 5 -3 7 3 5 13 -2 11 3 19 11 19
10 0 11 -4 3 -14 -6 -7 -8 -13 -5 -13 4 0 2 -8 -3 -18 -7 -13 -7 -22 1 -30 8
-8 8 -15 -2 -27 -12 -14 -7 -20 15 -15 6 1 4 -4 -3 -12 -9 -9 -15 -10 -20 -2
-5 9 -11 8 -20 -2 -10 -11 -10 -14 0 -14 9 0 9 -3 0 -12 -7 -7 -12 -16 -12
-22 0 -5 6 -1 14 9 8 11 12 23 10 27 -3 4 2 5 11 1 13 -5 14 -7 3 -14 -11 -7
-10 -11 2 -20 13 -9 13 -10 -2 -6 -9 3 -19 -1 -22 -9 -8 -21 -8 -24 5 -24 5 0
8 4 5 8 -3 5 1 9 8 9 11 0 12 -4 3 -18 -6 -9 -18 -15 -26 -12 -14 4 -14 3 -1
-5 9 -7 19 -7 25 -2 8 7 12 5 12 -5 0 -8 -4 -12 -9 -9 -4 3 -8 -2 -8 -11 0
-10 5 -13 12 -9 7 4 8 3 4 -5 -4 -6 -11 -9 -15 -7 -4 3 -13 1 -21 -5 -11 -6
-12 -9 -2 -9 7 0 10 -5 6 -12 -4 -7 -3 -8 5 -4 6 4 8 12 5 18 -5 7 -2 8 5 4 7
-5 10 -14 7 -22 -3 -7 3 -18 12 -23 13 -8 9 -9 -17 -6 -18 2 -30 1 -26 -3 4
-4 11 -8 16 -8 5 -1 13 -2 18 -3 6 0 8 -10 6 -21 -2 -11 3 -27 11 -35 9 -8 11
-15 5 -15 -5 0 -14 8 -20 18 -9 15 -10 14 -8 -5 1 -13 5 -23 10 -23 5 0 3 -8
-4 -17 -12 -15 -12 -16 2 -11 13 5 16 2 11 -14 -2 -11 1 -23 7 -28 9 -5 8 -9
-4 -13 -10 -5 -14 -3 -9 5 4 6 3 8 -4 5 -12 -8 -10 -32 3 -44 4 -5 4 -1 0 7
-8 13 -7 13 8 1 18 -14 24 -26 8 -17 -5 3 -11 -3 -14 -14 -3 -12 1 -24 11 -30
15 -8 15 -9 1 -10 -10 0 -15 -8 -13 -22 1 -13 3 -27 3 -31 1 -5 5 -5 11 -2 6
3 7 -1 4 -9 -3 -9 -11 -13 -17 -9 -6 3 -7 1 -3 -6 4 -6 12 -9 17 -6 5 4 9 1 9
-5 0 -6 5 -8 13 -4 9 6 9 4 -1 -8 -9 -11 -9 -18 -2 -21 6 -3 5 -4 -2 -3 -7 2
-12 9 -11 15 2 6 -1 11 -6 11 -6 0 -9 -9 -8 -19 0 -11 5 -17 9 -15 4 3 8 -1 8
-10 0 -8 -6 -17 -12 -19 -10 -4 -10 -6 0 -6 7 -1 15 6 18 14 4 8 10 15 15 15
5 0 3 -13 -6 -30 -9 -16 -11 -30 -6 -30 5 0 11 6 14 13 3 6 4 2 4 -10 -1 -13
-8 -23 -17 -24 -10 0 -9 -3 5 -9 11 -5 15 -9 8 -9 -7 -1 -10 -8 -6 -17 3 -9 0
-20 -8 -26 -11 -8 -10 -8 5 -4 13 5 17 2 13 -9 -4 -8 -2 -17 4 -21 6 -4 6 -11
-2 -20 -6 -8 -8 -14 -4 -14 4 0 1 -8 -6 -17 -11 -15 -11 -16 1 -5 21 18 28 15
22 -13 -2 -14 -9 -22 -15 -18 -6 3 -7 1 -3 -6 6 -9 11 -9 23 1 14 11 15 10 8
-11 -5 -16 -4 -21 4 -17 7 5 8 1 4 -10 -5 -13 -3 -15 7 -9 9 6 11 4 5 -5 -6
-10 -12 -8 -27 9 -10 13 -18 19 -18 13 0 -6 11 -19 25 -30 20 -16 22 -21 10
-26 -17 -6 -20 -26 -4 -26 5 0 7 5 3 12 -4 7 -3 8 4 4 6 -4 9 -13 5 -21 -4
-11 0 -14 13 -10 13 4 12 2 -3 -6 -12 -6 -24 -18 -27 -25 -4 -12 -1 -12 15 -3
11 6 23 8 27 5 3 -3 0 -6 -6 -6 -7 0 -12 -7 -12 -16 0 -12 6 -15 22 -11 21 6
22 5 5 -7 -14 -11 -15 -15 -5 -19 10 -4 10 -6 -1 -6 -11 -1 -10 -5 5 -17 10
-8 13 -13 6 -9 -8 4 -12 -1 -12 -14 0 -24 10 -27 28 -9 7 7 12 9 12 6 0 -4 -7
-13 -15 -22 -14 -13 -13 -16 4 -26 12 -6 18 -16 15 -25 -4 -8 -11 -12 -17 -8
-6 3 -7 1 -3 -5 4 -6 12 -9 20 -6 7 3 13 -2 13 -10 0 -8 -4 -13 -9 -10 -13 9
-9 -6 7 -22 8 -9 15 -20 15 -27 0 -6 -6 -3 -13 7 -12 16 -13 16 -13 -3 0 -11
4 -18 7 -15 4 2 10 0 14 -6 4 -6 12 -7 18 -3 7 4 6 0 -2 -10 -16 -20 -2 -23
19 -5 12 11 12 10 2 -3 -9 -12 -9 -18 1 -28 10 -11 7 -11 -13 -1 -21 11 -23
11 -14 -1 6 -8 10 -22 9 -32 -2 -9 1 -15 6 -11 5 3 6 10 3 16 -4 7 -2 8 4 4
13 -8 5 -36 -11 -36 -6 0 -7 -3 -4 -6 4 -4 13 -2 21 5 11 9 14 8 12 -6 -1 -12
5 -17 19 -16 19 1 19 1 2 -11 -19 -15 -24 -31 -5 -20 8 5 7 0 -2 -11 -14 -17
-13 -18 3 -12 11 4 16 3 12 -3 -3 -6 -1 -10 6 -10 7 0 4 -7 -7 -15 -15 -11
-16 -15 -4 -16 8 -1 19 -1 24 0 5 1 4 -5 -3 -13 -7 -9 -18 -13 -24 -9 -6 4 -7
1 -2 -6 5 -9 10 -10 18 -2 15 15 24 14 24 -4 0 -8 -4 -12 -9 -9 -4 3 -8 0 -8
-5 0 -11 15 -15 35 -11 6 1 7 -2 3 -5 -4 -4 -3 -17 3 -29 9 -18 8 -18 -9 3
-14 18 -21 21 -27 11 -5 -8 -4 -11 2 -7 10 6 28 -19 25 -34 -1 -4 9 -5 21 -2
22 5 22 5 2 -11 -19 -16 -19 -16 8 -12 16 3 25 1 22 -5 -4 -5 -11 -6 -17 -3
-6 4 -8 1 -6 -7 3 -8 12 -13 19 -11 8 2 11 0 7 -4 -4 -4 -2 -14 4 -23 10 -12
8 -12 -8 2 -24 20 -34 22 -34 6 0 -5 5 -7 10 -4 6 3 13 -1 16 -9 3 -8 15 -18
26 -22 16 -5 18 -8 7 -15 -12 -7 -12 -10 -1 -18 8 -4 14 -12 15 -17 1 -5 6 -8
10 -6 5 1 6 -2 2 -7 -3 -6 -13 -7 -23 -4 -13 4 -13 2 3 -10 13 -10 22 -12 26
-5 4 7 9 6 13 -1 4 -6 3 -11 -2 -11 -6 0 -13 -7 -16 -16 -4 -10 -2 -13 6 -8 8
5 9 2 5 -9 -3 -10 -4 -24 -1 -32 6 -14 8 -13 21 2 8 10 12 13 9 6 -4 -6 2 -17
11 -23 16 -10 16 -11 1 -6 -10 3 -20 1 -23 -5 -4 -5 -3 -9 2 -8 25 4 35 -1 24
-14 -15 -19 -1 -30 17 -14 13 10 14 9 7 -2 -6 -11 -4 -13 7 -8 11 4 15 0 13
-11 -1 -9 3 -21 9 -25 6 -5 0 -6 -14 -3 -14 3 -19 3 -12 0 6 -3 9 -11 6 -16
-4 -6 -2 -8 3 -5 6 4 13 0 17 -8 3 -8 11 -15 18 -15 9 0 8 3 -2 10 -9 6 -10
10 -3 10 16 0 26 -17 13 -25 -5 -3 -10 -11 -10 -16 0 -6 4 -7 10 -4 5 3 10 2
10 -3 0 -5 10 -14 23 -20 12 -6 16 -11 8 -11 -11 -1 -11 -4 -1 -16 7 -8 10
-23 8 -33 -4 -15 0 -18 18 -16 13 1 22 -2 18 -7 -3 -5 -9 -7 -14 -4 -5 3 -12
1 -15 -5 -4 -6 -1 -9 7 -8 8 2 12 -5 10 -17 -2 -16 -1 -17 7 -5 10 13 11 13
12 0 1 -8 1 -19 -1 -25 -1 -5 4 -4 11 3 16 15 29 16 29 1 0 -5 -4 -7 -10 -4
-5 3 -10 -1 -10 -10 0 -10 5 -13 12 -9 8 5 9 2 5 -10 -4 -11 -3 -15 4 -10 7 4
9 -3 7 -17 -2 -20 1 -24 23 -24 14 1 26 -5 26 -12 0 -6 -4 -10 -9 -7 -4 3 -8
0 -8 -5 0 -6 6 -11 13 -11 9 0 9 -2 -1 -9 -11 -7 -10 -9 3 -14 9 -4 13 -3 10
3 -3 6 -1 10 4 10 6 0 11 -9 11 -20 0 -11 5 -20 10 -20 6 0 10 -8 11 -17 0
-15 2 -15 9 2 7 17 9 15 9 -12 1 -18 6 -33 12 -33 5 0 7 5 3 12 -4 7 -3 8 5 4
9 -6 9 -11 1 -21 -8 -9 -5 -12 14 -10 21 3 24 0 17 -18 -10 -28 17 -61 36 -45
8 6 13 7 11 2 -1 -5 4 -19 11 -32 7 -13 10 -31 7 -39 -5 -13 -4 -13 7 -4 12 9
17 5 27 -19 7 -16 17 -30 22 -30 5 0 6 -6 2 -12 -5 -8 0 -7 11 2 16 14 17 13
11 -8 -5 -13 -3 -22 3 -22 6 0 11 5 11 12 0 6 3 8 6 5 4 -4 1 -14 -6 -22 -7
-9 -9 -15 -4 -14 27 5 36 -1 24 -16 -7 -8 -10 -16 -6 -16 22 -5 32 -4 37 4 3
5 9 1 12 -8 4 -9 3 -13 -3 -10 -6 3 -10 2 -10 -3 0 -14 27 -22 47 -16 14 5 15
4 4 -4 -9 -6 -10 -12 -3 -16 6 -4 8 -14 5 -22 -5 -14 -3 -15 15 -5 19 10 21 9
15 -5 -5 -13 -3 -15 8 -9 11 7 11 5 -1 -10 -11 -14 -11 -17 -1 -11 10 7 12 3
7 -15 -3 -13 -3 -18 0 -11 3 6 10 12 15 12 6 0 7 -5 4 -10 -3 -5 1 -10 9 -10
9 0 15 -3 15 -7 -3 -21 2 -33 16 -33 8 0 15 5 15 12 0 6 3 8 6 5 4 -4 1 -13
-6 -22 -10 -12 -9 -15 6 -16 11 -1 22 -1 25 -1 3 1 4 -10 1 -23 -2 -15 0 -25
7 -25 7 0 9 5 5 13 -5 8 -2 8 9 -2 17 -13 25 -47 9 -37 -5 3 -9 -2 -9 -11 0
-12 5 -10 20 8 11 13 18 17 14 8 -3 -9 0 -22 6 -29 9 -10 9 -11 0 -6 -6 3 -15
1 -19 -6 -4 -7 -3 -10 1 -5 5 4 17 0 27 -9 15 -14 20 -15 35 -3 15 11 16 11 6
-1 -17 -19 -16 -33 1 -27 10 4 13 1 10 -7 -3 -8 0 -17 7 -22 7 -4 10 -3 5 4
-3 6 -1 14 6 18 7 4 10 4 6 -1 -4 -4 -2 -15 5 -23 9 -13 9 -14 0 -8 -27 16
-11 -10 17 -29 28 -18 45 -45 18 -29 -6 4 -8 3 -4 -4 3 -6 16 -9 27 -7 20 4
20 3 6 -13 -15 -16 -15 -18 6 -19 17 -2 19 0 7 7 -9 6 -10 10 -3 10 6 0 18 -9
26 -20 8 -11 17 -17 22 -12 5 4 5 2 2 -5 -4 -6 -1 -14 5 -16 9 -4 7 -6 -3 -6
-9 -1 -21 9 -27 21 -6 13 -11 17 -11 10 -1 -7 -5 -11 -9 -8 -5 3 -9 -2 -9 -10
0 -9 4 -11 10 -5 5 5 16 2 28 -10 11 -11 24 -17 29 -14 6 4 10 -3 10 -15 0
-16 5 -20 25 -16 15 3 23 1 20 -5 -4 -5 -10 -7 -15 -4 -4 3 -10 -2 -14 -10 -3
-8 -2 -14 2 -14 21 4 42 -2 42 -12 0 -5 -6 -7 -12 -3 -8 4 -10 3 -5 -2 5 -5
14 -9 19 -9 6 0 13 -5 15 -12 3 -7 -4 -9 -19 -6 -13 3 -21 3 -18 0 11 -12 59
-15 64 -4 3 7 3 2 0 -10 -5 -21 3 -28 29 -24 4 0 7 -3 7 -9 0 -5 -6 -10 -12
-10 -7 0 -5 -5 5 -11 9 -6 15 -15 11 -21 -4 -6 2 -6 15 1 12 7 21 8 20 4 -4
-21 2 -33 13 -27 7 5 8 3 2 -7 -21 -34 -9 -45 26 -25 8 5 12 6 8 1 -13 -14 11
-45 30 -39 16 5 16 5 0 -6 -18 -11 -26 -36 -9 -25 12 7 43 -24 35 -36 -3 -5 0
-8 8 -7 7 2 12 -5 12 -14 -1 -10 2 -16 6 -13 5 3 12 -4 15 -16 4 -12 10 -17
14 -12 3 6 13 10 22 10 18 0 21 -28 5 -40 -6 -5 -1 -5 12 -2 24 7 29 -4 10
-24 -11 -11 -9 -12 10 -6 20 6 32 -8 15 -18 -5 -2 -2 -2 5 -1 14 4 33 -35 24
-50 -3 -5 0 -6 7 -2 7 5 10 15 6 23 -4 13 -3 14 9 4 8 -7 13 -21 11 -32 -5
-24 23 -38 36 -18 5 8 9 9 9 3 0 -5 -5 -15 -10 -20 -8 -8 -5 -15 7 -25 17 -13
17 -13 3 6 -14 18 -13 19 1 8 9 -7 18 -11 20 -8 3 2 4 -9 3 -25 -1 -17 2 -27
7 -24 5 3 9 -2 9 -11 0 -9 5 -13 11 -10 7 5 5 13 -6 25 -13 14 -14 20 -3 26 7
4 10 4 6 -1 -4 -4 -1 -14 7 -21 8 -8 12 -24 10 -37 -4 -21 -3 -21 9 -4 9 12
16 14 21 8 3 -6 2 -11 -3 -11 -6 0 -13 -7 -16 -16 -5 -14 -4 -15 9 -4 18 15
20 0 3 -19 -11 -11 -10 -12 2 -5 29 17 43 14 25 -6 -17 -19 -4 -23 23 -6 7 4
16 5 19 2 4 -3 1 -6 -5 -6 -7 0 -12 -7 -12 -15 0 -8 5 -15 11 -15 5 0 7 6 3
13 -4 6 3 3 15 -8 21 -18 22 -20 4 -33 -17 -14 -17 -14 5 -9 13 3 22 0 22 -7
0 -6 9 -18 19 -26 11 -7 18 -17 15 -22 -3 -4 2 -8 10 -8 9 0 16 -8 16 -18 0
-10 16 -33 35 -52 19 -18 31 -38 28 -43 -3 -6 -1 -7 6 -3 9 6 9 11 0 22 -8 10
-8 14 0 14 10 0 12 -4 15 -40 1 -8 7 -14 14 -13 6 2 16 -6 22 -17 6 -11 17
-17 24 -14 20 8 39 -29 24 -44 -9 -9 -8 -12 5 -12 9 0 17 5 17 12 0 6 3 8 7 4
5 -4 -1 -14 -11 -22 -19 -13 -18 -14 10 -15 16 -1 32 -1 35 -1 3 1 6 -5 6 -13
0 -8 -4 -12 -9 -9 -4 3 -8 0 -8 -5 0 -6 7 -11 16 -11 11 0 14 -6 8 -22 -6 -19
-5 -21 8 -11 12 11 19 8 39 -14 13 -14 18 -23 12 -19 -15 9 -17 -3 -3 -24 6
-10 10 -11 10 -2 0 6 5 12 11 12 5 0 7 -5 4 -10 -3 -5 -1 -10 4 -10 6 0 10 -3
10 -7 -4 -26 2 -35 15 -24 11 9 15 8 20 -4 3 -9 2 -14 -2 -11 -4 2 -8 -4 -8
-14 0 -15 3 -17 15 -7 11 10 13 8 7 -11 -5 -14 -3 -22 4 -22 6 0 9 4 6 8 -3 5
1 9 8 9 8 0 12 -7 8 -15 -3 -10 -1 -13 6 -8 8 5 10 1 5 -10 -5 -14 -3 -16 11
-11 14 6 16 3 10 -15 -6 -21 -5 -22 11 -8 17 14 18 14 5 -10 -12 -23 -12 -24
3 -11 15 12 17 11 17 -3 0 -9 6 -15 13 -14 6 2 11 -5 9 -15 -3 -16 9 -22 32
-18 5 1 3 -6 -5 -15 -13 -15 -12 -16 11 -9 l25 8 -20 -24 c-11 -13 -16 -21
-11 -17 5 4 16 2 24 -5 13 -10 14 -9 8 1 -7 11 -4 11 13 0 12 -7 21 -20 21
-28 0 -13 -1 -13 -10 0 -5 8 -11 12 -15 9 -3 -3 5 -14 17 -25 12 -10 18 -13
14 -7 -4 7 -2 13 3 13 6 0 11 -7 11 -15 0 -8 5 -15 10 -15 6 0 10 -7 10 -16 0
-12 6 -15 21 -11 12 3 18 3 15 0 -3 -4 -1 -12 5 -19 8 -10 6 -12 -10 -9 -12 2
-19 0 -16 -6 4 -5 10 -7 13 -5 4 2 18 -2 32 -10 14 -7 19 -13 13 -14 -7 0 -13
-5 -13 -11 0 -5 4 -8 8 -5 4 2 14 0 22 -5 12 -8 12 -12 3 -16 -7 -2 -13 -9
-13 -15 0 -6 6 -6 15 2 10 9 15 9 15 1 0 -6 5 -11 11 -11 5 0 7 5 4 10 -3 5
-1 10 4 10 12 0 14 -13 4 -24 -10 -10 -13 -37 -3 -31 4 3 13 -2 20 -10 9 -11
16 -12 25 -5 9 8 12 4 9 -16 -2 -25 -2 -25 19 -7 11 10 17 13 14 7 -6 -10 4
-27 40 -74 2 -2 9 2 14 10 9 13 10 13 6 0 -2 -9 -14 -14 -28 -13 l-24 3 25
-14 c14 -8 28 -12 32 -10 4 3 5 -2 2 -10 -3 -9 -11 -13 -17 -9 -6 3 -7 1 -3
-6 4 -6 12 -9 17 -6 5 4 12 0 15 -9 3 -8 14 -13 25 -11 11 2 17 0 14 -5 -7
-11 30 -32 40 -22 5 4 5 1 1 -6 -4 -7 -12 -10 -17 -7 -5 3 -6 -1 -3 -9 3 -9
11 -13 17 -9 7 4 8 0 4 -11 -5 -13 -3 -17 7 -13 17 7 36 -12 36 -36 0 -14 5
-17 18 -13 16 6 16 5 -1 -8 -16 -12 -16 -14 -2 -20 9 -3 13 -2 10 4 -3 6 -1
10 4 10 6 0 11 -7 11 -15 0 -8 -5 -15 -12 -15 -6 0 -9 -3 -5 -6 3 -3 12 -2 19
2 18 11 39 14 33 4 -3 -4 4 -19 15 -32 11 -14 16 -28 13 -32 -5 -5 10 -10 28
-8 10 1 7 -32 -5 -47 -9 -12 -8 -13 4 -6 21 13 39 15 45 5 3 -5 0 -12 -6 -16
-8 -5 -9 -3 -4 6 5 9 4 11 -3 6 -19 -12 -14 -29 7 -23 15 4 19 0 16 -15 -3
-16 -1 -17 10 -8 10 8 15 8 21 -1 4 -8 3 -9 -4 -5 -7 4 -12 2 -12 -3 0 -6 7
-11 16 -11 8 0 22 -7 30 -15 9 -8 11 -15 5 -15 -5 0 -13 5 -16 10 -3 6 -14 10
-23 9 -13 0 -12 -2 4 -9 23 -9 38 -36 28 -51 -3 -5 0 -9 7 -9 6 0 9 8 6 20 -3
11 -1 20 4 20 9 0 12 -18 10 -50 0 -10 1 -11 5 -2 3 6 10 12 15 12 6 0 7 -5 3
-12 -5 -8 -2 -9 9 -5 11 4 17 1 17 -8 0 -8 5 -15 12 -15 6 0 8 -3 5 -6 -4 -4
-13 -2 -20 4 -10 9 -14 9 -14 -1 0 -7 10 -14 21 -15 11 0 22 -6 24 -12 2 -5
13 -11 25 -11 17 -1 18 -2 4 -6 -9 -2 -15 -9 -11 -14 3 -5 10 -7 15 -4 5 3 6
-1 3 -9 -3 -9 -11 -16 -17 -16 -6 0 -7 -3 -4 -7 4 -3 19 4 34 18 15 13 22 17
16 9 -17 -22 -10 -48 15 -66 13 -9 19 -20 15 -27 -5 -8 -2 -8 9 0 15 13 28 8
28 -11 0 -6 -5 -4 -10 4 -5 8 -10 11 -10 5 0 -5 5 -17 10 -25 5 -8 10 -10 10
-4 0 6 7 11 15 11 10 0 12 -4 6 -10 -6 -6 -6 -18 1 -33 10 -22 12 -22 24 -6
12 15 13 15 9 -6 -4 -21 -2 -22 12 -10 12 9 15 9 9 0 -4 -8 -1 -12 9 -12 13 0
16 -6 11 -24 -6 -26 17 -56 29 -36 6 9 -1 14 -17 11 -11 -1 -10 17 1 23 5 3
12 -1 15 -10 3 -8 10 -13 15 -9 6 3 8 -3 6 -14 -2 -13 3 -21 17 -24 13 -4 17
-10 12 -18 -4 -8 -3 -10 5 -5 6 4 9 12 6 17 -4 5 -1 9 6 9 6 0 9 -8 7 -18 -3
-11 0 -19 8 -19 7 0 11 4 9 8 -3 4 2 9 10 12 9 4 12 1 9 -7 -7 -18 12 -30 22
-15 5 8 3 9 -6 4 -9 -5 -11 -4 -6 4 10 15 27 4 20 -13 -3 -7 2 -13 10 -13 8 0
13 4 10 8 -2 4 1 11 7 15 8 4 9 3 5 -5 -4 -7 2 -15 15 -20 26 -9 61 -3 54 9
-3 5 -1 12 5 15 6 4 9 1 8 -6 -2 -6 3 -14 11 -17 10 -3 12 0 8 11 -4 11 -2 14
8 10 8 -3 13 -8 10 -12 -2 -4 2 -8 10 -8 15 0 16 18 1 29 -5 3 7 5 27 3 25 -2
35 0 31 7 -5 7 2 9 19 6 23 -4 25 -3 17 13 -15 27 -12 35 5 13 13 -17 14 -17
15 -2 0 19 35 42 49 33 5 -3 7 4 4 15 -3 12 0 20 6 20 7 0 9 -5 5 -12 -5 -9
-2 -9 9 1 18 14 23 26 8 17 -10 -6 -25 24 -16 32 3 3 5 0 5 -6 0 -7 5 -12 11
-12 5 0 7 6 3 12 -4 7 3 4 16 -7 13 -11 20 -14 16 -7 -4 7 -3 19 4 27 8 9 8
15 0 20 -17 11 -2 23 23 18 18 -4 19 -3 7 6 -13 10 -13 11 0 11 13 0 13 1 0
10 -13 8 -12 10 3 10 9 0 17 -5 17 -12 0 -6 3 -8 6 -5 4 4 1 14 -7 24 -9 11
-10 14 -1 9 7 -4 12 -2 12 4 0 7 7 9 16 6 8 -3 13 -2 9 3 -3 5 1 12 7 15 7 3
2 3 -12 0 -18 -4 -21 -3 -11 4 8 6 10 15 5 23 -6 10 -3 10 11 -1 17 -14 18
-13 12 2 -4 12 -2 15 8 11 8 -3 12 -10 8 -16 -3 -6 -1 -7 6 -3 6 4 9 11 6 16
-3 4 1 13 9 19 7 6 12 22 10 36 -1 14 2 23 7 19 5 -3 7 -9 4 -14 -3 -5 0 -12
6 -16 8 -4 9 -3 5 4 -4 7 -2 12 5 12 8 0 7 5 -2 17 -12 15 -12 16 5 10 16 -6
17 -5 7 7 -11 13 -9 15 7 11 11 -2 23 3 26 10 3 9 -2 12 -16 10 -11 -3 -18 -1
-14 2 6 7 29 13 53 15 9 1 10 5 2 14 -7 8 -6 14 2 20 8 5 9 3 4 -6 -6 -9 -4
-11 4 -6 7 5 10 15 7 23 -4 10 -2 13 8 10 14 -6 33 9 36 28 1 6 6 9 11 8 4 -2
6 4 3 12 -4 9 0 15 9 15 9 0 19 4 22 10 3 5 0 7 -7 5 -9 -4 -14 2 -14 14 0 15
4 17 12 10 9 -7 16 -4 24 11 6 12 16 18 23 13 7 -4 5 2 -3 12 -8 10 -10 16 -5
13 6 -4 19 1 30 9 19 15 19 15 -5 9 -21 -6 -22 -5 -7 4 10 6 14 16 10 23 -4 7
0 6 10 -2 12 -9 17 -10 17 -2 0 7 4 10 9 7 5 -4 7 3 4 14 -3 12 1 22 11 26 9
3 14 10 11 14 -3 5 -1 11 5 15 6 4 8 11 5 16 -3 5 1 6 9 3 9 -3 16 -11 16 -17
0 -6 3 -7 6 -4 4 4 1 13 -6 22 -10 12 -10 15 4 15 14 0 15 4 5 21 -8 15 -8 19
0 15 6 -4 14 -1 17 7 3 8 25 28 49 43 25 15 43 30 40 32 -2 3 -11 -1 -20 -8
-21 -17 -19 3 3 27 9 10 14 14 10 8 -5 -7 -2 -12 6 -12 7 0 12 10 11 21 -2 31
14 49 32 35 7 -7 16 -9 20 -5 3 3 1 6 -5 6 -7 0 -12 5 -12 11 0 5 5 7 10 4 8
-5 14 13 12 36 -1 3 11 5 26 3 26 -2 26 -2 8 12 -11 8 -14 14 -7 14 7 0 10 4
7 9 -3 5 2 8 12 7 10 0 16 6 16 17 -1 9 5 17 13 17 8 0 11 -5 7 -12 -4 -8 -3
-10 2 -5 5 5 10 13 10 18 1 5 2 14 3 19 0 6 7 9 14 8 6 -2 11 3 9 10 -1 7 5
15 13 18 11 5 12 11 5 25 -8 15 -7 17 5 13 14 -6 19 5 16 33 -2 12 10 17 36
14 6 -1 15 4 19 10 4 8 3 9 -4 5 -7 -4 -12 -2 -12 3 0 6 12 11 28 12 15 0 21
3 15 6 -7 2 -13 9 -13 15 0 6 7 7 16 4 14 -5 15 -4 5 8 -8 10 -9 16 -1 21 6 3
7 12 4 18 -4 7 -4 9 1 5 4 -4 15 0 23 10 10 12 9 9 -2 -10 -10 -17 -12 -29 -6
-33 6 -4 10 -3 9 2 -4 20 2 27 12 13 9 -12 10 -12 5 4 -4 11 0 24 11 33 10 8
12 12 6 8 -18 -9 -16 1 4 24 9 11 21 17 26 14 6 -4 7 -1 3 6 -5 7 -15 10 -23
7 -8 -4 -11 -1 -7 5 3 6 18 8 33 5 19 -5 22 -4 11 4 -8 5 -11 10 -6 10 5 0 4
6 -2 13 -8 9 -8 17 0 27 8 13 9 12 5 -2 -3 -9 0 -19 7 -21 14 -6 18 22 5 38
-4 6 -4 17 1 25 14 21 12 32 -2 25 -7 -4 -4 1 6 9 11 9 14 16 8 16 -7 0 -12 4
-12 10 0 5 8 7 18 4 13 -5 14 -4 3 4 -8 6 -10 15 -5 23 6 10 3 10 -12 -1 -17
-13 -18 -13 -8 0 6 8 10 23 9 33 -2 9 1 14 7 11 6 -4 8 1 3 15 -4 12 -2 21 4
21 6 0 11 7 11 15 0 8 5 15 10 15 7 0 6 -8 -2 -23 -7 -12 -11 -26 -10 -31 2
-4 -3 -14 -9 -22 -8 -10 -8 -14 0 -14 6 0 12 6 13 13 5 43 18 68 32 60 6 -4 4
2 -4 12 -14 17 -13 18 5 12 20 -7 20 -7 1 8 -15 11 -16 15 -5 15 8 0 21 -6 29
-12 8 -7 6 -3 -3 9 -14 16 -15 23 -6 29 8 5 10 3 4 -6 -8 -13 -6 -13 50 4 31
9 43 19 38 32 -4 10 0 12 11 8 9 -3 14 -10 11 -14 -3 -5 7 -7 22 -6 34 4 41
22 17 42 -18 14 -18 14 3 5 12 -6 23 -8 26 -3 2 4 3 2 1 -3 -1 -6 6 -11 15
-11 10 0 18 6 19 13 1 7 3 20 4 28 1 8 5 12 10 9 5 -3 6 -15 4 -27 -3 -12 0
-8 8 8 8 17 17 29 20 27 4 -2 12 -2 18 0 7 3 5 7 -6 11 -12 5 -15 3 -10 -6 5
-9 4 -9 -6 0 -10 9 -9 15 5 30 10 10 20 17 22 16 8 -7 23 -2 23 8 0 5 -5 7
-12 3 -6 -4 -8 -3 -4 4 3 6 15 9 25 7 10 -2 24 1 32 7 11 8 10 9 -3 4 -10 -3
-18 -1 -18 5 0 6 -6 7 -12 3 -8 -4 -10 -3 -5 2 5 5 13 10 18 10 5 1 14 2 19 3
6 0 10 6 10 12 0 5 -5 7 -12 3 -6 -4 -3 4 8 18 10 14 23 24 27 21 5 -3 0 -11
-9 -17 -13 -10 -14 -15 -4 -21 9 -6 11 -4 5 5 -6 9 -4 12 7 8 11 -5 14 2 12
33 -1 24 2 38 10 36 6 -1 10 3 9 10 -2 7 4 10 12 7 8 -4 12 -11 8 -18 -3 -6 0
-5 8 2 12 11 12 14 -1 23 -12 9 -10 10 8 6 12 -3 20 -1 16 4 -3 5 -1 9 4 9 6
0 13 7 16 16 6 15 4 15 -10 3 -19 -15 -47 -21 -38 -8 3 5 9 7 14 4 10 -6 36
34 32 48 -1 5 2 6 8 2 6 -3 8 -11 5 -16 -4 -5 -1 -9 4 -9 6 0 11 11 11 24 0
14 5 28 12 32 7 5 8 3 3 -7 -8 -12 -6 -12 8 0 19 15 23 26 6 15 -7 -4 -10 -1
-7 7 3 8 11 13 18 11 11 -3 11 0 0 13 -11 13 -10 15 4 9 10 -4 18 0 22 10 3 9
10 14 14 11 10 -6 31 51 22 61 -4 5 2 2 12 -6 13 -10 17 -10 12 -2 -4 6 -2 12
3 12 6 0 11 12 11 26 0 14 4 23 10 19 6 -4 7 -11 4 -17 -4 -7 -2 -8 4 -4 8 5
9 13 2 25 -8 15 -5 18 15 15 14 -1 23 2 19 7 -3 5 -9 7 -13 5 -4 -3 -8 1 -8 9
0 11 5 11 19 4 18 -10 19 -9 7 13 -11 21 -11 22 5 9 14 -12 16 -12 10 4 -5 13
-4 16 4 11 7 -4 12 -2 12 4 0 6 5 8 10 5 6 -3 10 1 10 10 0 10 -5 13 -12 9 -7
-4 0 7 16 24 16 18 32 30 34 27 3 -3 11 0 19 6 11 10 11 15 1 27 -11 13 -11
14 1 7 11 -6 13 -4 8 8 -8 21 -3 21 16 2 13 -13 16 -13 21 1 3 8 2 12 -4 9 -9
-6 -12 -2 -14 28 -1 15 36 17 46 2 5 -6 8 -5 8 3 0 7 -7 15 -15 19 -13 5 -13
8 5 20 17 12 19 18 9 29 -7 8 -7 14 -1 14 18 0 22 -29 6 -45 -9 -8 -11 -15 -6
-15 15 0 44 49 36 62 -4 6 -3 8 3 5 10 -6 27 27 24 45 0 4 6 5 14 1 13 -4 13
-8 3 -22 -10 -13 -10 -14 2 -3 8 6 14 24 15 40 0 18 7 30 23 37 14 6 26 22 29
38 5 25 7 26 20 10 8 -10 12 -13 9 -6 -4 6 4 19 16 27 12 9 18 16 12 16 -5 0
-15 -5 -21 -11 -8 -8 -13 -7 -18 2 -5 8 -4 10 3 5 7 -4 12 -2 12 3 0 6 7 11
16 11 10 0 14 6 11 14 -3 8 1 17 9 20 9 3 12 1 9 -4 -9 -15 1 -12 14 4 9 11 9
16 0 22 -8 5 -9 3 -4 -6 5 -9 4 -11 -4 -6 -15 10 -4 27 13 20 9 -4 13 2 11 20
-2 15 1 24 6 20 5 -3 9 3 9 13 0 15 2 15 9 4 8 -12 12 -13 26 -1 10 9 13 16 6
23 -13 13 36 73 55 69 9 -2 11 3 8 13 -4 8 1 17 10 21 9 3 13 11 9 17 -4 6 4
8 23 4 16 -3 23 -4 16 -1 -6 3 -9 11 -6 16 4 6 3 8 -3 5 -5 -3 -10 0 -10 8 0
11 5 12 21 3 19 -10 20 -10 7 5 -16 20 -1 23 18 5 11 -10 12 -10 7 -1 -4 7 -9
22 -11 32 -3 15 2 19 20 16 14 -1 22 2 19 6 -5 8 10 13 29 10 5 -1 6 3 2 9 -4
7 -12 7 -25 0 -24 -13 -30 -13 -30 0 0 6 3 9 8 8 4 0 18 4 32 10 14 6 19 11
13 11 -7 1 -13 6 -13 12 0 5 5 7 10 4 6 -3 10 -1 10 5 0 6 5 8 13 4 9 -6 9 -4
-1 8 -10 13 -10 18 -1 24 8 4 9 3 5 -4 -4 -7 -1 -12 8 -12 8 0 18 5 22 12 4 6
3 8 -3 5 -6 -4 -13 -1 -16 7 -4 10 0 12 14 9 13 -4 19 0 19 11 0 9 5 15 12 14
7 -2 12 4 13 12 0 9 8 14 20 12 17 -2 17 -1 5 8 -13 9 -13 11 0 19 8 5 17 8
21 5 4 -2 6 7 3 22 -3 15 -1 23 5 20 14 -9 50 42 46 65 -4 17 -2 19 11 8 12
-10 13 -9 7 7 -6 17 -5 18 12 4 17 -14 18 -14 7 7 -8 14 -9 24 -2 28 6 4 7 11
4 17 -4 7 0 7 12 0 14 -7 23 -6 32 4 7 8 8 14 2 14 -5 0 -10 5 -10 11 0 5 5 7
10 4 6 -3 10 0 10 9 0 8 -3 16 -7 19 -5 2 -3 3 3 1 6 -1 17 8 24 21 7 14 18
22 24 19 6 -3 2 2 -9 12 -17 14 -17 16 -2 11 11 -4 20 -1 23 8 4 8 12 15 20
15 8 0 15 6 15 13 3 26 5 33 16 53 7 12 9 25 5 29 -4 5 -1 5 6 1 11 -6 10 -13
-3 -32 -8 -13 -12 -24 -7 -24 15 0 29 43 26 75 -2 16 0 25 4 19 8 -13 44 -15
36 -2 -3 5 -10 6 -15 3 -5 -4 -9 -1 -9 4 0 6 8 11 18 12 10 0 12 3 5 6 -7 2
-13 10 -13 16 0 5 3 8 6 4 4 -3 13 0 20 8 17 17 18 29 2 19 -7 -5 -8 -3 -4 5
5 7 14 10 21 7 8 -3 19 2 25 10 8 9 9 14 2 14 -6 0 -13 -6 -15 -12 -3 -7 -6
-3 -6 10 -1 15 3 21 11 16 8 -5 9 -2 5 9 -3 10 -2 17 3 17 6 0 10 -4 10 -10 0
-5 5 -10 12 -10 6 0 8 3 5 7 -4 3 -1 13 7 22 8 9 15 21 16 26 1 6 6 9 10 8 5
-1 7 11 5 28 -2 16 0 27 5 24 5 -3 12 0 16 6 4 7 3 9 -3 6 -6 -4 -15 6 -22 21
-9 22 -9 24 1 12 7 -8 22 -16 33 -18 l20 -4 -20 17 c-11 9 -15 14 -9 11 7 -3
15 1 18 10 3 8 2 13 -3 9 -5 -3 -8 3 -7 12 2 9 9 19 17 21 11 3 12 2 1 -6 -11
-8 -11 -10 0 -14 9 -4 14 3 14 23 2 26 0 28 -15 17 -14 -11 -14 -11 -4 3 7 9
9 20 5 24 -4 5 0 4 8 -1 24 -14 39 -13 33 2 -3 8 -10 11 -16 7 -6 -3 -7 -1 -3
5 4 7 17 12 29 12 17 0 19 2 8 9 -8 5 -20 7 -28 4 -28 -11 -11 5 22 21 30 15
33 19 25 41 -6 15 -6 27 1 30 5 4 6 11 3 17 -5 7 -2 9 8 5 25 -9 30 4 11 27
-10 12 -11 15 -3 8 16 -14 34 -16 26 -3 -4 5 -3 11 1 14 5 2 2 2 -4 1 -7 -2
-13 1 -13 6 0 6 5 10 10 10 6 0 10 5 10 11 0 5 -6 7 -12 3 -7 -4 -5 2 5 13 14
16 15 22 5 27 -7 3 -4 5 7 3 13 -3 28 5 39 21 11 14 15 22 9 19 -6 -4 -17 1
-24 10 -8 9 -9 14 -3 10 7 -4 17 0 24 8 7 8 9 15 4 15 -5 0 -2 5 6 11 12 8 9
9 -10 5 l-25 -6 23 12 c16 8 22 18 18 30 -4 16 -2 17 11 6 15 -12 15 -10 3 12
-12 23 -12 24 4 11 14 -12 16 -12 10 3 -3 9 -10 16 -15 16 -5 0 -9 5 -9 11 0
5 5 7 10 4 8 -5 15 21 12 46 -1 4 6 6 16 5 19 -1 23 22 8 43 -9 12 -7 13 8 8
16 -6 17 -5 6 8 -7 8 -9 15 -4 15 4 0 3 5 -4 12 -7 7 -12 16 -12 22 0 5 6 1
14 -9 8 -11 12 -24 9 -29 -4 -5 -1 -6 5 -2 9 5 9 13 2 27 -9 16 -7 19 12 19
13 0 18 3 12 8 -15 10 -14 44 2 38 9 -3 10 3 4 25 -7 23 -5 29 6 29 14 0 14 2
0 15 -8 9 -13 22 -10 30 8 19 10 19 18 -1 4 -10 2 -13 -6 -8 -7 4 -8 3 -4 -5
13 -21 26 -1 16 24 -6 16 -6 25 0 25 6 0 10 -5 10 -12 0 -6 3 -8 7 -5 3 4 -1
15 -11 26 -14 15 -14 20 -3 29 8 7 18 8 23 4 4 -4 2 2 -6 12 -8 11 -10 17 -3
13 6 -4 15 -2 19 4 4 7 3 9 -4 5 -6 -3 -13 -2 -17 4 -3 5 -1 10 5 10 6 0 8 5
5 10 -4 6 -11 7 -17 4 -7 -5 -8 -2 -4 5 5 7 15 10 22 7 11 -4 13 -2 6 11 -7
11 -5 21 5 31 7 8 12 17 9 19 -3 3 -12 -2 -21 -11 -23 -22 -32 -20 -12 2 10
10 15 21 12 24 -3 3 5 4 17 3 20 -2 23 2 24 31 0 23 -4 34 -13 34 -8 0 -11 5
-8 10 4 6 10 8 14 6 4 -3 8 4 8 15 1 11 -2 17 -7 14 -5 -3 -12 0 -16 6 -4 8
-3 9 4 5 13 -8 15 2 13 44 -1 18 1 21 7 12 7 -11 10 -9 15 7 3 12 2 19 -3 16
-4 -3 -10 4 -13 16 -4 16 -3 18 9 8 8 -6 14 -10 15 -8 6 31 6 40 -3 46 -6 3
-8 2 -5 -4 3 -5 0 -10 -8 -10 -8 0 -15 4 -15 8 0 9 30 20 40 14 4 -3 6 4 3 15
-3 11 0 20 6 20 6 0 11 4 11 10 0 5 -3 9 -7 9 -5 -1 -15 -1 -23 1 -12 1 -11 3
2 8 16 6 16 10 4 34 -8 14 -10 30 -6 35 12 13 30 74 20 68 -5 -3 -12 0 -16 6
-4 7 -3 9 4 5 6 -3 13 -2 17 4 3 5 1 10 -5 10 -6 0 -9 4 -5 10 3 5 13 7 23 4
14 -5 14 -4 2 4 -8 6 -17 9 -21 6 -4 -2 -11 0 -14 6 -4 6 -3 10 2 9 4 -1 17
-1 28 1 l20 1 -20 8 c-11 5 -23 7 -27 5 -3 -2 -1 7 5 20 11 24 13 24 32 8 16
-14 17 -14 7 -1 -6 9 -8 20 -4 24 4 5 1 4 -7 0 -11 -6 -13 -4 -7 10 5 15 4 16
-9 5 -9 -7 -18 -10 -22 -6 -3 3 -1 6 5 6 7 0 10 16 7 47 -2 28 0 42 5 34 4 -8
7 -24 6 -36 -2 -12 3 -22 10 -22 7 0 11 4 8 9 -3 5 0 16 7 24 10 12 10 15 -1
12 -8 -2 -16 6 -18 17 -2 11 -12 25 -21 32 -14 12 -14 12 3 6 15 -5 17 -3 11
7 -9 15 -15 93 -6 84 3 -3 6 -15 6 -27 0 -11 7 -22 15 -24 12 -4 12 -3 2 5
-20 13 -19 17 3 43 19 22 19 23 1 9 -18 -14 -19 -13 -13 2 3 10 1 20 -5 24 -7
4 -8 3 -4 -4 4 -7 2 -12 -4 -12 -7 0 -10 6 -7 14 3 7 0 19 -6 26 -10 10 -7 10
10 1 16 -8 24 -8 29 1 4 7 3 8 -4 4 -7 -4 -12 -3 -12 3 0 5 6 12 13 15 6 3 1
3 -13 -1 -22 -5 -23 -4 -12 10 9 10 10 17 2 22 -5 3 -10 1 -10 -6 0 -7 -3 -9
-6 -6 -4 4 -2 12 3 19 6 7 9 21 8 31 -2 9 0 15 4 13 4 -3 8 4 8 15 1 10 -2 19
-8 19 -5 0 -9 -4 -9 -10 0 -5 -5 -10 -11 -10 -8 0 -8 4 0 13 6 8 9 23 6 36 -2
12 0 19 6 16 5 -4 7 -10 4 -15 -3 -5 -2 -11 2 -13 5 -3 8 10 9 29 0 19 -2 31
-5 25 -4 -5 -11 1 -18 15 -8 17 -8 26 -1 31 6 3 8 1 4 -5 -3 -6 -1 -14 5 -18
7 -4 9 -3 5 4 -3 6 -2 13 4 17 16 10 2 25 -18 19 -14 -5 -15 -4 -2 5 16 11 15
13 -14 28 -16 9 -17 11 -2 16 10 4 15 3 11 -3 -3 -6 -2 -10 3 -10 6 0 13 8 16
17 4 10 4 14 0 10 -4 -4 -13 -2 -20 4 -17 14 1 53 19 43 8 -5 8 -2 -1 7 -8 9
-15 10 -20 4 -4 -6 -14 -11 -22 -13 -11 -3 -12 0 -4 8 13 13 7 163 -7 168 -5
2 -9 8 -9 13 0 6 4 8 8 5 4 -2 14 0 22 6 13 8 12 9 -2 5 -24 -8 -30 4 -10 20
15 11 15 12 1 7 -10 -3 -20 0 -24 5 -3 6 -10 9 -15 6 -5 -3 -11 -1 -15 4 -3 6
3 8 15 6 13 -2 20 1 20 11 0 10 -5 12 -12 8 -8 -5 -7 0 2 11 14 17 13 17 -10
11 -22 -6 -22 -5 -7 4 17 11 17 13 1 24 -12 9 -14 15 -6 20 7 4 12 12 12 17 0
6 -4 7 -10 4 -5 -3 -10 -2 -10 4 0 5 6 11 13 14 9 3 9 7 -2 20 -7 9 -11 23 -8
32 4 8 2 17 -4 20 -5 4 -9 3 -8 -2 1 -4 1 -17 0 -28 -1 -16 -3 -17 -11 -5 -5
8 -6 17 -2 20 4 3 8 13 10 22 2 13 -2 16 -15 12 -17 -5 -17 -5 0 6 13 9 15 15
7 31 -6 11 -15 17 -20 14 -6 -3 -7 1 -3 10 4 13 7 14 14 3 6 -9 8 -6 6 9 0 12
-5 19 -9 17 -4 -3 -8 0 -8 6 0 6 -4 8 -10 5 -6 -3 -7 1 -3 10 4 12 8 13 13 5
5 -9 9 -9 14 -1 4 6 2 11 -5 11 -8 0 -8 5 2 18 11 14 11 15 -1 5 -14 -13 -39
-19 -27 -6 4 3 0 14 -9 24 -10 11 -12 19 -5 24 12 7 15 26 3 22 -4 -1 -7 2 -7
8 0 5 3 9 8 8 12 -5 8 7 -8 24 -8 8 -13 19 -10 24 4 5 2 9 -4 9 -5 0 -11 -5
-13 -12 -3 -7 -7 -5 -11 6 -4 10 -3 15 3 11 6 -3 10 3 10 14 0 12 -3 21 -8 21
-4 0 -13 9 -20 21 -8 12 -9 18 -3 15 5 -4 9 2 8 14 -1 14 -6 18 -18 15 -10 -3
-20 -1 -24 4 -3 7 0 8 9 5 9 -3 16 -1 16 6 0 6 5 8 10 5 6 -3 10 -1 10 5 0 7
-8 9 -20 5 -15 -5 -18 -3 -14 9 3 9 11 13 18 10 6 -3 -2 7 -19 21 -16 15 -25
25 -19 21 7 -3 12 4 12 19 0 21 -3 23 -14 14 -12 -10 -13 -9 -8 5 3 9 11 16
17 16 6 0 8 3 5 6 -4 3 -16 1 -27 -5 -17 -9 -20 -9 -15 3 3 8 13 17 22 19 15
4 15 5 0 6 -10 0 -18 6 -18 12 0 5 -4 7 -10 4 -7 -4 -7 2 0 19 6 17 6 27 -1
32 -8 4 -7 10 2 16 12 8 12 9 0 6 -8 -2 -15 -12 -17 -21 -1 -10 2 -14 8 -11 7
5 8 2 4 -5 -5 -7 -11 -10 -14 -6 -11 11 -11 39 1 54 10 12 9 13 -13 2 l-25
-12 21 19 c21 18 21 19 3 30 -15 9 -20 8 -29 -6 -9 -13 -10 -14 -7 -1 3 9 1
22 -3 29 -6 9 -3 18 8 26 16 12 16 13 0 19 -10 4 -15 13 -11 23 4 15 3 15 -6
2 -9 -13 -11 -13 -12 0 -1 8 -1 18 0 23 0 4 -5 7 -13 7 -8 0 -18 5 -22 12 -4
7 -3 8 4 4 7 -4 12 -1 12 9 0 9 -4 13 -10 10 -5 -3 -10 1 -10 10 0 10 5 13 12
9 7 -4 8 -3 4 4 -4 6 -13 9 -21 5 -8 -3 -15 0 -15 7 0 6 -4 8 -10 5 -6 -4 -7
1 -3 11 4 11 8 13 11 6 2 -7 8 -12 13 -12 5 0 4 9 -3 19 -7 11 -16 17 -20 15
-4 -3 -8 5 -8 16 0 15 -5 20 -14 17 -9 -4 -12 0 -9 12 5 19 -21 36 -38 26 -5
-4 -6 1 -3 10 5 12 9 13 20 4 8 -7 16 -10 19 -8 2 3 -9 13 -25 24 -16 11 -32
29 -36 40 -3 11 -7 23 -9 28 -1 4 -3 14 -4 23 0 8 -5 12 -11 9 -5 -3 -10 3
-10 15 0 12 -6 20 -12 18 -7 -2 -13 2 -13 7 0 6 6 9 15 7 8 -2 -1 7 -20 19
-33 21 -34 22 -15 36 19 15 19 15 -4 8 -16 -5 -21 -4 -17 4 4 6 2 11 -3 11 -6
0 -10 3 -10 8 4 25 -2 34 -15 23 -11 -9 -12 -6 -8 15 3 19 1 25 -7 20 -6 -4
-11 -2 -11 4 0 6 -6 8 -12 4 -7 -4 -10 -4 -6 1 4 4 2 15 -5 24 -10 14 -10 14
5 3 12 -9 18 -10 23 -2 4 6 4 14 1 17 -3 4 -6 1 -6 -5 0 -9 -5 -9 -20 0 -11 7
-20 18 -20 25 0 7 -4 13 -10 13 -5 0 -10 7 -10 15 0 18 -17 20 -22 3 -3 -7 -7
-5 -11 6 -4 10 -3 15 3 11 6 -3 10 -1 10 4 0 6 -4 11 -10 11 -5 0 -10 7 -10
16 0 8 -4 13 -8 10 -4 -2 -14 -1 -22 5 -12 7 -12 9 3 9 10 0 15 5 12 10 -4 6
-11 8 -16 5 -5 -4 -9 -2 -9 4 0 5 -8 12 -18 15 -18 6 -22 16 -24 66 0 14 -3
19 -5 12 -3 -6 -9 -10 -14 -7 -5 4 -6 -2 -3 -12 5 -15 4 -16 -5 -3 -6 8 -8 23
-5 33 3 9 0 17 -6 17 -6 0 -8 6 -4 13 6 10 4 10 -7 0 -20 -19 -29 -16 -26 9 1
12 -4 23 -10 24 -7 1 -17 2 -23 3 -5 0 -10 6 -10 12 0 5 5 7 12 3 7 -4 8 -3 4
5 -6 9 -11 9 -23 -1 -14 -11 -15 -10 -8 10 6 22 5 23 -15 12 -20 -11 -21 -10
-10 10 10 18 9 21 -1 15 -9 -6 -11 -3 -6 8 3 10 2 17 -3 17 -6 0 -10 -4 -10
-10 0 -5 -4 -10 -10 -10 -6 0 -6 9 -1 24 8 20 7 23 -15 22 -13 -1 -23 4 -21 9
1 6 8 9 14 9 7 -1 10 3 7 8 -3 5 -12 7 -20 4 -13 -5 -41 31 -36 47 1 5 -2 6
-8 2 -7 -4 -7 -13 1 -28 9 -19 7 -18 -10 3 -12 16 -16 29 -10 34 12 13 12 26
-2 26 -5 0 -7 -5 -3 -11 4 -7 -1 -10 -12 -7 -12 2 -19 11 -18 26 1 16 -2 20
-11 12 -13 -11 -25 -4 -25 14 0 6 5 4 11 -4 9 -13 10 -13 6 0 -2 9 -14 15 -30
14 -15 -1 -24 2 -22 6 8 13 -6 40 -17 34 -6 -4 -8 3 -4 17 3 13 3 18 0 12 -9
-19 -29 -16 -50 9 -10 12 -13 18 -6 14 22 -13 13 6 -13 26 -14 11 -22 25 -19
31 5 8 2 8 -7 0 -18 -17 -32 -16 -26 2 4 8 1 17 -5 21 -7 4 -8 3 -4 -4 12 -20
-2 -13 -29 13 -28 29 -31 41 -12 48 9 4 9 6 -1 6 -7 1 -17 -9 -22 -21 -7 -19
-9 -19 -9 -5 -1 12 -5 16 -13 11 -10 -6 -10 -4 0 8 12 14 10 16 -10 11 l-23
-6 20 24 c11 13 13 19 5 13 -17 -13 -52 -15 -44 -2 3 4 1 8 -5 8 -5 0 -12 -6
-15 -12 -3 -7 -3 -3 -1 8 4 14 0 24 -10 28 -9 3 -14 10 -11 15 3 5 -3 7 -14 4
-18 -5 -25 5 -21 30 1 5 -3 6 -9 2 -5 -3 -10 -1 -10 6 0 7 -3 9 -6 6 -4 -4 -1
-13 6 -22 11 -13 10 -14 -4 -9 -9 3 -16 15 -16 25 0 11 -7 19 -16 19 -9 0 -12
5 -8 13 5 7 0 6 -11 -3 -11 -9 -16 -10 -11 -2 6 11 1 14 -21 11 -4 0 -10 9
-15 20 -4 12 -15 21 -23 21 -10 0 -13 5 -9 13 5 9 4 9 -6 0 -14 -13 -40 -7
-40 9 0 7 5 6 13 -1 10 -8 14 -7 14 4 0 7 -3 14 -6 13 -28 -3 -61 4 -61 13 0
5 5 7 10 4 16 -10 11 1 -7 16 -11 10 -14 10 -9 1 11 -19 -25 -10 -59 15 -24
17 -27 24 -17 35 9 12 9 15 -3 15 -8 0 -12 -4 -9 -9 3 -4 -2 -8 -10 -8 -8 0
-17 8 -19 18 -4 14 -5 14 -6 -3 -2 -16 -5 -15 -17 10 -8 17 -12 22 -9 13 5
-22 -4 -22 -30 -1 -16 13 -17 15 -2 10 9 -4 17 -1 17 4 0 7 -11 9 -26 6 -14
-2 -31 2 -39 9 -7 8 -15 10 -18 6 -2 -4 -3 -2 -1 4 1 6 -2 17 -7 25 -7 11 -9
10 -9 -4 0 -16 -2 -16 -15 -5 -8 7 -21 19 -30 26 -8 7 -12 18 -9 24 4 7 2 8
-4 4 -6 -4 -8 -14 -5 -23 6 -15 5 -16 -9 -3 -9 8 -14 18 -12 22 8 13 -17 19
-31 8 -12 -10 -15 -10 -15 2 0 8 6 20 13 28 10 12 9 12 -4 2 -9 -6 -20 -8 -24
-4 -5 4 -6 2 -2 -3 3 -6 -3 -11 -13 -11 -14 0 -16 4 -9 12 7 8 6 15 -2 20 -7
4 -9 3 -6 -3 4 -6 -9 -10 -33 -9 -25 1 -36 4 -30 10 6 6 10 17 10 26 -1 12 -2
12 -11 -2 -8 -15 -13 -16 -29 -6 -10 7 -16 16 -13 22 3 5 1 6 -5 3 -13 -9 -42
2 -42 15 0 6 6 5 15 -2 10 -9 15 -9 15 -1 0 6 -3 11 -7 12 -5 0 -18 2 -30 3
-15 2 -20 -2 -17 -13 2 -9 -2 -2 -10 14 -11 21 -15 24 -16 12 0 -10 -4 -16
-10 -12 -5 3 -6 13 -3 22 6 15 5 16 -9 3 -9 -8 -13 -19 -10 -25 3 -5 1 -6 -3
-2 -12 10 -15 38 -4 32 5 -4 6 2 2 11 -4 11 -8 13 -11 6 -5 -16 -32 -15 -32 1
0 8 -4 7 -10 -3 -6 -10 -10 -11 -10 -2 0 6 -7 12 -16 12 -8 0 -13 -4 -10 -8 3
-5 -1 -9 -7 -9 -7 0 -14 10 -15 21 -1 16 1 18 8 6 7 -12 9 -10 8 6 -1 11 -8
21 -15 21 -6 0 -10 -4 -8 -8 3 -3 -4 -9 -15 -12 -11 -3 -23 0 -27 5 -3 6 -1 8
5 4 6 -3 13 -2 16 3 4 5 -2 8 -11 6 -10 -2 -18 -4 -18 -5 0 -1 -12 -3 -27 -4
-18 -2 -25 1 -21 10 9 23 -6 34 -32 24 -20 -8 -27 -5 -41 13 -9 12 -14 15 -11
6 3 -9 -1 -16 -9 -16 -7 0 -11 4 -8 9 3 4 1 8 -5 8 -5 0 -12 -6 -15 -12 -3 -9
-10 -7 -23 8 -10 11 -24 19 -31 16 -7 -2 -10 2 -7 10 4 9 -2 14 -17 15 -18 2
-20 0 -8 -7 13 -8 12 -10 -2 -10 -10 0 -18 5 -18 10 0 6 -5 10 -11 10 -5 0 -7
-4 -4 -10 3 -5 1 -10 -4 -10 -10 0 -15 13 -13 31 1 3 -5 6 -13 6 -7 0 -11 -7
-8 -15 5 -12 2 -12 -15 -3 -12 7 -22 14 -22 17 0 3 4 3 9 0 11 -7 8 20 -3 31
-4 4 -6 1 -4 -7 2 -10 -6 -15 -24 -16 -16 -1 -28 3 -28 7 0 5 -5 9 -11 9 -6 0
-8 -8 -5 -17 6 -17 5 -17 -8 0 -15 19 -42 24 -30 5 5 -7 3 -8 -7 -2 -8 4 -18
9 -24 10 -31 5 -41 11 -53 27 -7 9 -17 15 -22 12 -4 -3 -11 1 -13 7 -4 10 -6
10 -6 0 -1 -8 -6 -10 -13 -6 -21 13 -46 12 -41 -3 3 -7 0 -13 -6 -13 -10 0
-15 12 -13 31 1 3 -9 4 -21 3 -12 -1 -26 -3 -30 -3 -5 -1 -6 -5 -2 -10 3 -5 0
-13 -6 -17 -8 -4 -9 -3 -5 4 4 7 2 12 -5 12 -8 0 -7 5 2 17 13 15 12 15 -8 3
-12 -8 -20 -18 -17 -22 3 -4 -2 -5 -10 -2 -9 3 -16 10 -16 15 0 5 -8 9 -17 9
-16 0 -16 -2 -3 -11 12 -9 11 -9 -5 -4 -11 4 -27 8 -35 8 -8 0 -21 7 -29 14
-7 8 -20 12 -27 9 -7 -3 -16 -1 -19 5 -9 14 -27 0 -21 -17 3 -8 0 -11 -10 -7
-8 3 -13 11 -10 18 3 8 -2 12 -11 11 -9 -2 -20 -11 -24 -22 -7 -17 -8 -17 -8
-1 -1 16 -12 21 -40 18 -8 -2 -10 2 -5 10 5 8 3 10 -5 5 -7 -5 -10 -15 -6 -24
5 -14 3 -14 -13 1 -10 9 -22 14 -25 10 -4 -3 -7 0 -7 8 0 12 -2 12 -9 0 -8
-12 -15 -13 -35 -3 -19 8 -27 8 -32 0 -4 -6 -3 -8 4 -4 6 3 14 1 18 -6 4 -7 4
-10 -1 -6 -4 4 -15 2 -23 -5 -10 -7 -13 -8 -9 -1 4 7 0 17 -8 24 -13 11 -14
10 -8 -6 6 -17 5 -18 -12 -4 -10 8 -16 10 -12 3 4 -6 2 -15 -4 -19 -7 -4 -10
-3 -6 2 3 5 -6 14 -19 21 -13 6 -22 8 -19 3 3 -4 -11 -10 -30 -12 -24 -3 -35
0 -35 9 0 7 -5 13 -11 13 -5 0 -7 -5 -3 -11 4 -7 -4 -10 -25 -7 -20 2 -35 -3
-41 -12 -7 -11 -10 -12 -10 -2 0 9 -7 11 -21 7 -12 -4 -19 -3 -16 1 3 5 -6 9
-19 9 -17 0 -23 -4 -19 -15 3 -8 -4 -4 -15 10 -15 18 -18 20 -14 6 6 -16 4
-17 -11 -8 -15 8 -22 6 -32 -6 -10 -14 -14 -15 -22 -3 -11 17 -55 5 -44 -12 4
-7 -1 -6 -10 2 -18 14 -23 26 -8 16 5 -3 12 -1 15 4 4 5 -2 8 -11 6 -10 -1
-24 3 -32 9 -11 8 -13 8 -7 -1z m801 -27 c7 3 16 1 20 -5 3 -7 0 -8 -9 -5 -9
3 -16 1 -16 -5 0 -6 -5 -11 -12 -11 -6 0 -8 3 -5 7 4 3 1 13 -5 22 -10 13 -10
14 1 4 7 -6 19 -9 26 -7z m-1181 -51 c-7 -16 -24 -21 -24 -6 0 8 7 13 27 20 1
1 0 -6 -3 -14z m1496 5 c0 -5 -5 -10 -11 -10 -5 0 -7 5 -4 10 3 6 8 10 11 10
2 0 4 -4 4 -10z m-1539 -27 c-12 -20 -14 -14 -5 12 4 9 9 14 11 11 3 -2 0 -13
-6 -23z m1760 -40 c13 -16 12 -17 -3 -4 -17 13 -22 21 -14 21 2 0 10 -8 17
-17z m-2084 -35 c2 -17 0 -19 -7 -8 -5 8 -6 18 -4 22 8 12 10 10 11 -14z
m2228 -8 c3 -6 -1 -7 -9 -4 -18 7 -21 14 -7 14 6 0 13 -4 16 -10z m155 -30
c-6 -11 -13 -20 -16 -20 -2 0 0 9 6 20 6 11 13 20 16 20 2 0 0 -9 -6 -20z
m-3357 -405 c-3 -9 -8 -14 -10 -11 -3 3 -2 9 2 15 9 16 15 13 8 -4z m-343
-226 c0 -5 -4 -9 -8 -9 -5 0 -9 7 -9 15 0 8 4 12 9 9 4 -3 8 -9 8 -15z m5129
-188 c-2 -6 -10 2 -17 17 -11 25 -11 25 4 10 9 -9 15 -21 13 -27z m-5554 -190
c3 -5 2 -12 -3 -15 -5 -3 -9 1 -9 9 0 17 3 19 12 6z m-45 -21 c0 -5 -5 -10
-11 -10 -5 0 -7 5 -4 10 3 6 8 10 11 10 2 0 4 -4 4 -10z m5890 -60 c0 -5 -5
-10 -11 -10 -5 0 -7 5 -4 10 3 6 8 10 11 10 2 0 4 -4 4 -10z m111 -133 c-10
-9 -11 -8 -5 6 3 10 9 15 12 12 3 -3 0 -11 -7 -18z m43 -26 c3 -5 -1 -14 -8
-20 -10 -9 -16 -9 -21 -1 -4 6 -1 9 7 8 7 -2 12 3 11 10 -3 14 3 16 11 3z
m-6414 -236 c0 -3 -9 -16 -21 -28 l-21 -22 13 28 c11 23 29 37 29 22z m-40
-67 c0 -4 -7 -8 -15 -8 -8 0 -15 4 -15 8 0 5 7 9 15 9 8 0 15 -4 15 -9z m6984
-534 c3 -8 2 -12 -4 -9 -6 3 -10 10 -10 16 0 14 7 11 14 -7z m-7304 -4 c0 -5
-2 -10 -4 -10 -3 0 -8 5 -11 10 -3 6 -1 10 4 10 6 0 11 -4 11 -10z m7340 -30
c18 -12 2 -12 -25 0 -13 6 -15 9 -5 9 8 0 22 -4 30 -9z m-7387 -75 c-3 -9 -8
-14 -10 -11 -3 3 -2 9 2 15 9 16 15 13 8 -4z m7422 5 c3 -5 1 -10 -4 -10 -6 0
-11 5 -11 10 0 6 2 10 4 10 3 0 8 -4 11 -10z m-7495 -165 c0 -1 -9 -5 -19 -8
-13 -3 -18 -1 -14 9 4 10 33 10 33 -1z m7750 -609 c0 -2 -7 -7 -16 -10 -8 -3
-12 -2 -9 4 6 10 25 14 25 6z m-7985 -115 c3 -5 2 -12 -3 -15 -5 -3 -9 1 -9 9
0 17 3 19 12 6z m-45 -305 c0 -2 -7 -7 -16 -10 -8 -3 -12 -2 -9 4 6 10 25 14
25 6z m4 -944 c3 -5 -1 -9 -9 -9 -8 0 -12 4 -9 9 3 4 7 8 9 8 2 0 6 -4 9 -8z
m7981 -602 c3 -5 1 -10 -4 -10 -6 0 -11 5 -11 10 0 6 2 10 4 10 3 0 8 -4 11
-10z m-38 -165 c0 -8 -4 -12 -9 -9 -5 3 -6 10 -3 15 9 13 12 11 12 -6z m-82
-237 c5 4 5 2 1 -5 -8 -14 -36 -6 -36 9 0 7 5 6 13 -1 8 -6 18 -7 22 -3z
m-227 -494 c-12 -12 -17 -13 -23 -3 -5 8 -4 10 3 5 11 -7 17 6 12 29 -1 6 4 4
11 -3 11 -10 10 -15 -3 -28z m-14 -35 c-8 -14 -21 -11 -21 5 0 8 6 12 14 9 7
-3 10 -9 7 -14z m-180 -280 c-3 -5 -10 -7 -15 -3 -5 3 -7 10 -3 15 3 5 10 7
15 3 5 -3 7 -10 3 -15z m-6763 -42 c-10 -9 -11 -8 -5 6 3 10 9 15 12 12 3 -3
0 -11 -7 -18z m179 -225 c0 -15 -2 -15 -10 -2 -13 20 -13 33 0 25 6 -3 10 -14
10 -23z m6390 -2 c-9 -17 -40 -19 -40 -3 0 3 7 3 15 -1 14 -5 20 5 16 27 -1 5
3 6 9 2 7 -4 7 -12 0 -25z m-50 -60 c0 -5 -4 -10 -10 -10 -5 0 -10 5 -10 10 0
6 5 10 10 10 6 0 10 -4 10 -10z m-340 -444 c0 -3 -4 -8 -10 -11 -5 -3 -10 -1
-10 4 0 6 5 11 10 11 6 0 10 -2 10 -4z m-5520 -42 c0 -8 -19 -13 -24 -6 -3 5
1 9 9 9 8 0 15 -2 15 -3z m5130 -448 c0 -3 -4 -8 -10 -11 -5 -3 -10 -1 -10 4
0 6 5 11 10 11 6 0 10 -2 10 -4z m-4590 -189 c0 -6 -11 7 -25 27 -14 20 -25
40 -25 43 0 4 11 -8 25 -27 14 -19 25 -38 25 -43z m4405 -25 c-3 -3 -11 0 -18
7 -9 10 -8 11 6 5 10 -3 15 -9 12 -12z m-3929 -484 c4 -7 3 -8 -4 -4 -7 4 -12
2 -12 -3 0 -6 7 -11 16 -11 8 0 12 -4 9 -10 -3 -5 -1 -10 4 -10 6 0 11 -6 11
-12 0 -7 -12 -1 -26 14 -15 14 -23 31 -20 37 9 14 13 14 22 -1z m3364 -64 c0
-8 -19 -13 -24 -6 -3 5 1 9 9 9 8 0 15 -2 15 -3z m90 -16 c0 -5 -9 -4 -20 2
-11 6 -20 12 -20 14 0 2 9 2 20 -1 11 -3 20 -9 20 -15z m-3360 -3 c0 -2 -10
-9 -22 -15 -22 -11 -22 -10 -4 4 21 17 26 19 26 11z m3262 -4 c16 9 19 8 16
-3 -3 -7 -13 -13 -24 -13 -10 1 -22 -3 -25 -8 -3 -5 -9 -1 -12 8 -4 9 -3 13 3
10 6 -3 10 0 11 7 0 10 2 10 6 1 3 -10 10 -10 25 -2z m-292 -521 c0 -5 -5 -10
-11 -10 -5 0 -7 5 -4 10 3 6 8 10 11 10 2 0 4 -4 4 -10z m-97 -131 c-8 -8 -13
-7 -18 2 -5 8 -4 10 3 5 7 -4 12 -2 12 5 0 7 3 9 7 6 4 -4 2 -12 -4 -18z m-39
-37 c3 -5 -1 -9 -9 -9 -8 0 -12 4 -9 9 3 4 7 8 9 8 2 0 6 -4 9 -8z m-2169
-100 c-3 -3 0 -11 6 -19 17 -20 5 -16 -14 5 -15 16 -15 19 -2 19 8 0 13 -3 10
-5z m1975 -148 c0 -8 -19 -13 -24 -6 -3 5 1 9 9 9 8 0 15 -2 15 -3z m-142
-189 c-3 -3 -9 2 -12 12 -6 14 -5 15 5 6 7 -7 10 -15 7 -18z m-128 -155 c0 -5
-5 -10 -11 -10 -5 0 -7 5 -4 10 3 6 8 10 11 10 2 0 4 -4 4 -10z m-15 -29 c3
-5 2 -12 -3 -15 -5 -3 -9 1 -9 9 0 17 3 19 12 6z m-1130 -101 c3 -5 1 -10 -4
-10 -6 0 -11 5 -11 10 0 6 2 10 4 10 3 0 8 -4 11 -10z m979 -79 c3 -5 -2 -15
-12 -22 -15 -12 -16 -12 -5 2 7 9 10 19 6 22 -3 4 -4 7 0 7 3 0 8 -4 11 -9z
m-812 -111 c6 0 9 -2 6 -5 -9 -10 -55 16 -55 31 0 10 6 9 19 -6 10 -11 24 -20
30 -20z m58 -85 c0 -8 -2 -15 -4 -15 -2 0 -6 7 -10 15 -3 8 -1 15 4 15 6 0 10
-7 10 -15z m620 11 c0 -3 -4 -8 -10 -11 -5 -3 -10 -1 -10 4 0 6 5 11 10 11 6
0 10 -2 10 -4z m-80 -66 c0 -5 -5 -10 -11 -10 -5 0 -7 5 -4 10 3 6 8 10 11 10
2 0 4 -4 4 -10z"/>
<path d="M4981 10414 c0 -11 3 -14 6 -6 3 7 2 16 -1 19 -3 4 -6 -2 -5 -13z"/>
<path d="M5135 10420 c3 -5 8 -10 11 -10 2 0 4 5 4 10 0 6 -5 10 -11 10 -5 0
-7 -4 -4 -10z"/>
<path d="M5712 10406 c7 -8 15 -12 17 -11 5 6 -10 25 -20 25 -5 0 -4 -6 3 -14z"/>
<path d="M5745 10400 c-3 -6 1 -7 9 -4 18 7 21 14 7 14 -6 0 -13 -4 -16 -10z"/>
<path d="M6036 10367 c3 -10 9 -15 12 -12 3 3 0 11 -7 18 -10 9 -11 8 -5 -6z"/>
<path d="M6090 10339 c0 -5 5 -7 10 -4 6 3 10 8 10 11 0 2 -4 4 -10 4 -5 0
-10 -5 -10 -11z"/>
<path d="M4155 10290 c-3 -6 1 -7 9 -4 18 7 21 14 7 14 -6 0 -13 -4 -16 -10z"/>
<path d="M3975 10240 c-3 -5 -1 -10 4 -10 6 0 11 5 11 10 0 6 -2 10 -4 10 -3
0 -8 -4 -11 -10z"/>
<path d="M6543 10215 c0 -6 6 -12 12 -12 6 0 12 6 12 12 0 6 -6 12 -12 12 -6
0 -12 -6 -12 -12z"/>
<path d="M3735 10140 c3 -5 8 -10 11 -10 2 0 4 5 4 10 0 6 -5 10 -11 10 -5 0
-7 -4 -4 -10z"/>
<path d="M6890 10081 c0 -6 4 -12 8 -15 5 -3 9 1 9 9 0 8 -4 15 -9 15 -4 0 -8
-4 -8 -9z"/>
<path d="M6938 10058 c-7 -17 15 -19 29 -3 4 4 3 5 -4 2 -6 -4 -13 -2 -15 5
-3 8 -6 6 -10 -4z"/>
<path d="M7201 9933 c7 -12 15 -20 18 -17 3 2 -3 12 -13 22 -17 16 -18 16 -5
-5z"/>
<path d="M3276 9913 c-6 -14 -5 -15 5 -6 7 7 10 15 7 18 -3 3 -9 -2 -12 -12z"/>
<path d="M7364 9842 c-8 -5 -4 -13 11 -25 18 -13 25 -14 31 -5 4 7 4 10 0 6
-10 -8 -36 14 -29 25 5 9 1 9 -13 -1z"/>
<path d="M7975 9381 c-3 -5 -2 -12 3 -15 5 -3 9 1 9 9 0 17 -3 19 -12 6z"/>
<path d="M2476 9343 c-6 -14 -5 -15 5 -6 7 7 10 15 7 18 -3 3 -9 -2 -12 -12z"/>
<path d="M2198 9063 c6 -3 9 -9 6 -15 -4 -6 2 -5 15 1 28 15 27 19 -6 18 -16
0 -22 -2 -15 -4z"/>
<path d="M2049 8873 c-13 -15 -12 -15 9 -4 23 12 28 21 13 21 -5 0 -15 -7 -22
-17z"/>
<path d="M8454 8882 c4 -3 14 -7 22 -8 9 -1 13 0 10 4 -4 3 -14 7 -22 8 -9 1
-13 0 -10 -4z"/>
<path d="M8687 8549 c7 -7 15 -10 18 -7 3 3 -2 9 -12 12 -14 6 -15 5 -6 -5z"/>
<path d="M8771 8431 c-8 -5 -9 -11 -3 -15 5 -3 12 1 16 9 6 17 6 18 -13 6z"/>
<path d="M1706 8369 c2 -4 -2 -10 -8 -12 -8 -4 -9 -6 -2 -6 6 -1 17 5 23 12 8
10 7 14 -4 14 -8 0 -12 -4 -9 -8z"/>
<path d="M1593 8163 c0 -7 4 -13 8 -13 4 0 9 6 12 13 3 8 0 14 -7 14 -7 0 -13
-6 -13 -14z"/>
<path d="M9115 7681 c-3 -5 -2 -12 3 -15 5 -3 9 1 9 9 0 17 -3 19 -12 6z"/>
<path d="M1326 7521 c-4 -5 -2 -12 3 -15 5 -4 12 -2 15 3 4 5 2 12 -3 15 -5 4
-12 2 -15 -3z"/>
<path d="M9160 7506 c0 -2 7 -9 15 -16 9 -7 15 -8 15 -2 0 5 -7 12 -15 16 -8
3 -15 4 -15 2z"/>
<path d="M1235 7230 c-3 -6 1 -7 9 -4 18 7 21 14 7 14 -6 0 -13 -4 -16 -10z"/>
<path d="M9250 7183 c8 -3 22 -11 30 -17 13 -10 13 -9 1 7 -7 9 -21 17 -30 16
-13 0 -14 -1 -1 -6z"/>
<path d="M1213 7043 c0 -7 4 -13 8 -13 4 0 9 6 12 13 3 8 0 14 -7 14 -7 0 -13
-6 -13 -14z"/>
<path d="M9305 6890 c-3 -6 1 -7 9 -4 18 7 21 14 7 14 -6 0 -13 -4 -16 -10z"/>
<path d="M9318 6823 c7 -3 16 -2 19 1 4 3 -2 6 -13 5 -11 0 -14 -3 -6 -6z"/>
<path d="M9340 6536 c0 -2 7 -7 16 -10 8 -3 12 -2 9 4 -6 10 -25 14 -25 6z"/>
<path d="M1160 6453 c7 -3 7 -10 -2 -21 -11 -13 -11 -14 2 -10 18 6 20 30 2
34 -7 1 -8 0 -2 -3z"/>
<path d="M9348 6348 c5 -5 16 -8 23 -6 8 3 3 7 -10 11 -17 4 -21 3 -13 -5z"/>
<path d="M9355 6321 c-3 -5 -2 -12 3 -15 5 -3 9 1 9 9 0 17 -3 19 -12 6z"/>
<path d="M9326 5981 c-3 -5 1 -11 9 -14 9 -4 12 -1 8 9 -6 16 -10 17 -17 5z"/>
<path d="M1316 5182 c-3 -4 4 -9 15 -9 23 -2 25 3 4 10 -8 4 -16 3 -19 -1z"/>
<path d="M1406 4922 c-3 -5 1 -9 9 -9 8 0 12 4 9 9 -3 4 -7 8 -9 8 -2 0 -6 -4
-9 -8z"/>
<path d="M9045 4820 c-3 -5 -2 -10 4 -10 5 0 13 5 16 10 3 6 2 10 -4 10 -5 0
-13 -4 -16 -10z"/>
<path d="M9000 4700 c-8 -5 -10 -10 -5 -10 6 0 17 5 25 10 8 5 11 10 5 10 -5
0 -17 -5 -25 -10z"/>
<path d="M1555 4589 c-4 -6 -5 -12 -2 -15 2 -3 7 2 10 11 7 17 1 20 -8 4z"/>
<path d="M1735 4240 c-4 -6 3 -10 14 -10 25 0 27 6 6 13 -8 4 -17 2 -20 -3z"/>
<path d="M1750 4216 c0 -2 7 -9 15 -16 13 -11 14 -10 9 4 -5 14 -24 23 -24 12z"/>
<path d="M8595 3980 c-3 -5 -1 -10 4 -10 6 0 11 5 11 10 0 6 -2 10 -4 10 -3 0
-8 -4 -11 -10z"/>
<path d="M8515 3881 c-6 -11 13 -26 22 -17 4 3 1 6 -6 6 -7 0 -9 5 -6 10 3 6
4 10 1 10 -3 0 -7 -4 -11 -9z"/>
<path d="M2015 3840 c-3 -5 -1 -10 4 -10 6 0 11 5 11 10 0 6 -2 10 -4 10 -3 0
-8 -4 -11 -10z"/>
<path d="M2070 3760 c0 -5 5 -10 10 -10 6 0 10 5 10 10 0 6 -4 10 -10 10 -5 0
-10 -4 -10 -10z"/>
<path d="M2120 3691 c0 -6 4 -13 10 -16 6 -3 7 1 4 9 -7 18 -14 21 -14 7z"/>
<path d="M2275 3520 c3 -5 8 -10 11 -10 2 0 4 5 4 10 0 6 -5 10 -11 10 -5 0
-7 -4 -4 -10z"/>
<path d="M8140 3396 c0 -2 8 -10 18 -17 15 -13 16 -12 3 4 -13 16 -21 21 -21
13z"/>
<path d="M8093 3341 c-16 -20 -18 -28 -8 -28 8 0 11 5 8 10 -4 6 0 8 8 5 9 -4
14 2 15 18 1 13 1 24 0 23 0 0 -11 -13 -23 -28z"/>
<path d="M2415 3350 c-3 -6 1 -7 9 -4 18 7 21 14 7 14 -6 0 -13 -4 -16 -10z"/>
<path d="M8025 3250 c-8 -13 9 -20 24 -11 10 6 9 10 -3 14 -8 3 -18 2 -21 -3z"/>
<path d="M7866 3052 c-3 -4 4 -9 15 -9 23 -2 25 3 4 10 -8 4 -16 3 -19 -1z"/>
<path d="M7710 2870 c0 -5 5 -10 10 -10 6 0 10 5 10 10 0 6 -4 10 -10 10 -5 0
-10 -4 -10 -10z"/>
<path d="M7631 2756 c-9 -11 -9 -16 0 -22 7 -4 9 -3 5 4 -3 5 0 12 6 15 7 2
10 7 7 11 -3 4 -12 0 -18 -8z"/>
<path d="M2961 2724 c0 -11 3 -14 6 -6 3 7 2 16 -1 19 -3 4 -6 -2 -5 -13z"/>
<path d="M7266 2292 c-3 -6 -1 -14 5 -17 15 -10 25 3 12 16 -7 7 -13 7 -17 1z"/>
<path d="M3426 2222 c-3 -5 1 -9 9 -9 8 0 12 4 9 9 -3 4 -7 8 -9 8 -2 0 -6 -4
-9 -8z"/>
<path d="M7140 2130 c-8 -5 -10 -10 -5 -10 6 0 17 5 25 10 8 5 11 10 5 10 -5
0 -17 -5 -25 -10z"/>
<path d="M3663 1953 c-7 -2 -13 -9 -13 -15 0 -6 6 -6 15 2 10 9 15 9 15 1 0
-6 4 -11 10 -11 5 0 7 7 4 15 -6 16 -11 17 -31 8z"/>
<path d="M3797 1799 c4 -13 8 -18 11 -10 2 7 -1 18 -6 23 -8 8 -9 4 -5 -13z"/>
<path d="M6786 1732 c-3 -5 1 -9 9 -9 8 0 12 4 9 9 -3 4 -7 8 -9 8 -2 0 -6 -4
-9 -8z"/>
<path d="M6585 1440 c-3 -5 1 -10 10 -10 9 0 13 5 10 10 -3 6 -8 10 -10 10 -2
0 -7 -4 -10 -10z"/>
<path d="M6365 1170 c-3 -5 -1 -10 4 -10 6 0 11 5 11 10 0 6 -2 10 -4 10 -3 0
-8 -4 -11 -10z"/>
<path d="M4374 1146 c1 -14 6 -29 11 -34 4 -4 4 -1 0 7 -6 11 -4 13 10 7 18
-7 18 -6 0 16 -11 13 -21 25 -22 27 -1 2 -1 -9 1 -23z"/>
<path d="M6262 1030 c-7 -11 -8 -20 -3 -20 5 0 12 7 15 16 3 8 11 12 17 8 8
-4 9 -3 5 4 -10 17 -19 15 -34 -8z"/>
<path d="M4477 1014 c-4 -4 -7 -12 -7 -18 0 -6 5 -4 10 4 9 13 11 13 21 0 9
-12 10 -12 7 -1 -5 17 -21 25 -31 15z"/>
<path d="M4556 941 c-4 -5 -2 -12 3 -15 5 -4 12 -2 15 3 4 5 2 12 -3 15 -5 4
-12 2 -15 -3z"/>
<path d="M4654 836 c11 -18 12 -26 3 -29 -6 -3 -2 -5 9 -4 l22 1 -21 28 c-25
34 -35 37 -13 4z"/>
<path d="M4703 765 c0 -8 4 -12 9 -9 5 3 6 10 3 15 -9 13 -12 11 -12 -6z"/>
</g>
</svg>
